<?xml version="1.0" encoding="utf-8" standalone="no"?>
<!DOCTYPE svg PUBLIC "-//W3C//DTD SVG 1.1//EN"
  "http://www.w3.org/Graphics/SVG/1.1/DTD/svg11.dtd">
<svg xmlns:xlink="http://www.w3.org/1999/xlink" width="460.8pt" height="345.6pt" viewBox="0 0 460.8 345.6" xmlns="http://www.w3.org/2000/svg" version="1.1">
 <metadata>
  <rdf:RDF xmlns:dc="http://purl.org/dc/elements/1.1/" xmlns:cc="http://creativecommons.org/ns#" xmlns:rdf="http://www.w3.org/1999/02/22-rdf-syntax-ns#">
   <cc:Work>
    <dc:type rdf:resource="http://purl.org/dc/dcmitype/StillImage"/>
    <dc:date>2022-12-21T08:20:17.690423</dc:date>
    <dc:format>image/svg+xml</dc:format>
    <dc:creator>
     <cc:Agent>
      <dc:title>Matplotlib v3.5.3, https://matplotlib.org/</dc:title>
     </cc:Agent>
    </dc:creator>
   </cc:Work>
  </rdf:RDF>
 </metadata>
 <defs>
  <style type="text/css">*{stroke-linejoin: round; stroke-linecap: butt}</style>
 </defs>
 <g id="figure_1">
  <g id="patch_1">
   <path d="M 0 345.6 
L 460.8 345.6 
L 460.8 0 
L 0 0 
z
" style="fill: #ffffff"/>
  </g>
  <g id="axes_1">
   <g id="patch_2">
    <path d="M 57.6 307.584 
L 414.72 307.584 
L 414.72 41.472 
L 57.6 41.472 
z
" style="fill: #ffffff"/>
   </g>
   <g id="matplotlib.axis_1">
    <g id="xtick_1">
     <g id="line2d_1">
      <path d="M 73.832727 307.584 
L 73.832727 41.472 
" clip-path="url(#pb77685cd9d)" style="fill: none; stroke: #cccccc; stroke-linecap: round"/>
     </g>
     <g id="text_1">
      <!-- 89.4 -->
      <g style="fill: #262626" transform="translate(63.129212 324.957594)scale(0.11 -0.11)">
       <defs>
        <path id="ArialMT-38" d="M 1131 2484 
Q 781 2613 612 2850 
Q 444 3088 444 3419 
Q 444 3919 803 4259 
Q 1163 4600 1759 4600 
Q 2359 4600 2725 4251 
Q 3091 3903 3091 3403 
Q 3091 3084 2923 2848 
Q 2756 2613 2416 2484 
Q 2838 2347 3058 2040 
Q 3278 1734 3278 1309 
Q 3278 722 2862 322 
Q 2447 -78 1769 -78 
Q 1091 -78 675 323 
Q 259 725 259 1325 
Q 259 1772 486 2073 
Q 713 2375 1131 2484 
z
M 1019 3438 
Q 1019 3113 1228 2906 
Q 1438 2700 1772 2700 
Q 2097 2700 2305 2904 
Q 2513 3109 2513 3406 
Q 2513 3716 2298 3927 
Q 2084 4138 1766 4138 
Q 1444 4138 1231 3931 
Q 1019 3725 1019 3438 
z
M 838 1322 
Q 838 1081 952 856 
Q 1066 631 1291 507 
Q 1516 384 1775 384 
Q 2178 384 2440 643 
Q 2703 903 2703 1303 
Q 2703 1709 2433 1975 
Q 2163 2241 1756 2241 
Q 1359 2241 1098 1978 
Q 838 1716 838 1322 
z
" transform="scale(0.015625)"/>
        <path id="ArialMT-39" d="M 350 1059 
L 891 1109 
Q 959 728 1153 556 
Q 1347 384 1650 384 
Q 1909 384 2104 503 
Q 2300 622 2425 820 
Q 2550 1019 2634 1356 
Q 2719 1694 2719 2044 
Q 2719 2081 2716 2156 
Q 2547 1888 2255 1720 
Q 1963 1553 1622 1553 
Q 1053 1553 659 1965 
Q 266 2378 266 3053 
Q 266 3750 677 4175 
Q 1088 4600 1706 4600 
Q 2153 4600 2523 4359 
Q 2894 4119 3086 3673 
Q 3278 3228 3278 2384 
Q 3278 1506 3087 986 
Q 2897 466 2520 194 
Q 2144 -78 1638 -78 
Q 1100 -78 759 220 
Q 419 519 350 1059 
z
M 2653 3081 
Q 2653 3566 2395 3850 
Q 2138 4134 1775 4134 
Q 1400 4134 1122 3828 
Q 844 3522 844 3034 
Q 844 2597 1108 2323 
Q 1372 2050 1759 2050 
Q 2150 2050 2401 2323 
Q 2653 2597 2653 3081 
z
" transform="scale(0.015625)"/>
        <path id="ArialMT-2e" d="M 581 0 
L 581 641 
L 1222 641 
L 1222 0 
L 581 0 
z
" transform="scale(0.015625)"/>
        <path id="ArialMT-34" d="M 2069 0 
L 2069 1097 
L 81 1097 
L 81 1613 
L 2172 4581 
L 2631 4581 
L 2631 1613 
L 3250 1613 
L 3250 1097 
L 2631 1097 
L 2631 0 
L 2069 0 
z
M 2069 1613 
L 2069 3678 
L 634 1613 
L 2069 1613 
z
" transform="scale(0.015625)"/>
       </defs>
       <use xlink:href="#ArialMT-38"/>
       <use xlink:href="#ArialMT-39" x="55.615234"/>
       <use xlink:href="#ArialMT-2e" x="111.230469"/>
       <use xlink:href="#ArialMT-34" x="139.013672"/>
      </g>
     </g>
    </g>
    <g id="xtick_2">
     <g id="line2d_2">
      <path d="M 132.860826 307.584 
L 132.860826 41.472 
" clip-path="url(#pb77685cd9d)" style="fill: none; stroke: #cccccc; stroke-linecap: round"/>
     </g>
     <g id="text_2">
      <!-- 89.5 -->
      <g style="fill: #262626" transform="translate(122.157311 324.957594)scale(0.11 -0.11)">
       <defs>
        <path id="ArialMT-35" d="M 266 1200 
L 856 1250 
Q 922 819 1161 601 
Q 1400 384 1738 384 
Q 2144 384 2425 690 
Q 2706 997 2706 1503 
Q 2706 1984 2436 2262 
Q 2166 2541 1728 2541 
Q 1456 2541 1237 2417 
Q 1019 2294 894 2097 
L 366 2166 
L 809 4519 
L 3088 4519 
L 3088 3981 
L 1259 3981 
L 1013 2750 
Q 1425 3038 1878 3038 
Q 2478 3038 2890 2622 
Q 3303 2206 3303 1553 
Q 3303 931 2941 478 
Q 2500 -78 1738 -78 
Q 1113 -78 717 272 
Q 322 622 266 1200 
z
" transform="scale(0.015625)"/>
       </defs>
       <use xlink:href="#ArialMT-38"/>
       <use xlink:href="#ArialMT-39" x="55.615234"/>
       <use xlink:href="#ArialMT-2e" x="111.230469"/>
       <use xlink:href="#ArialMT-35" x="139.013672"/>
      </g>
     </g>
    </g>
    <g id="xtick_3">
     <g id="line2d_3">
      <path d="M 191.888926 307.584 
L 191.888926 41.472 
" clip-path="url(#pb77685cd9d)" style="fill: none; stroke: #cccccc; stroke-linecap: round"/>
     </g>
     <g id="text_3">
      <!-- 89.6 -->
      <g style="fill: #262626" transform="translate(181.18541 324.957594)scale(0.11 -0.11)">
       <defs>
        <path id="ArialMT-36" d="M 3184 3459 
L 2625 3416 
Q 2550 3747 2413 3897 
Q 2184 4138 1850 4138 
Q 1581 4138 1378 3988 
Q 1113 3794 959 3422 
Q 806 3050 800 2363 
Q 1003 2672 1297 2822 
Q 1591 2972 1913 2972 
Q 2475 2972 2870 2558 
Q 3266 2144 3266 1488 
Q 3266 1056 3080 686 
Q 2894 316 2569 119 
Q 2244 -78 1831 -78 
Q 1128 -78 684 439 
Q 241 956 241 2144 
Q 241 3472 731 4075 
Q 1159 4600 1884 4600 
Q 2425 4600 2770 4297 
Q 3116 3994 3184 3459 
z
M 888 1484 
Q 888 1194 1011 928 
Q 1134 663 1356 523 
Q 1578 384 1822 384 
Q 2178 384 2434 671 
Q 2691 959 2691 1453 
Q 2691 1928 2437 2201 
Q 2184 2475 1800 2475 
Q 1419 2475 1153 2201 
Q 888 1928 888 1484 
z
" transform="scale(0.015625)"/>
       </defs>
       <use xlink:href="#ArialMT-38"/>
       <use xlink:href="#ArialMT-39" x="55.615234"/>
       <use xlink:href="#ArialMT-2e" x="111.230469"/>
       <use xlink:href="#ArialMT-36" x="139.013672"/>
      </g>
     </g>
    </g>
    <g id="xtick_4">
     <g id="line2d_4">
      <path d="M 250.917025 307.584 
L 250.917025 41.472 
" clip-path="url(#pb77685cd9d)" style="fill: none; stroke: #cccccc; stroke-linecap: round"/>
     </g>
     <g id="text_4">
      <!-- 89.7 -->
      <g style="fill: #262626" transform="translate(240.213509 324.957594)scale(0.11 -0.11)">
       <defs>
        <path id="ArialMT-37" d="M 303 3981 
L 303 4522 
L 3269 4522 
L 3269 4084 
Q 2831 3619 2401 2847 
Q 1972 2075 1738 1259 
Q 1569 684 1522 0 
L 944 0 
Q 953 541 1156 1306 
Q 1359 2072 1739 2783 
Q 2119 3494 2547 3981 
L 303 3981 
z
" transform="scale(0.015625)"/>
       </defs>
       <use xlink:href="#ArialMT-38"/>
       <use xlink:href="#ArialMT-39" x="55.615234"/>
       <use xlink:href="#ArialMT-2e" x="111.230469"/>
       <use xlink:href="#ArialMT-37" x="139.013672"/>
      </g>
     </g>
    </g>
    <g id="xtick_5">
     <g id="line2d_5">
      <path d="M 309.945124 307.584 
L 309.945124 41.472 
" clip-path="url(#pb77685cd9d)" style="fill: none; stroke: #cccccc; stroke-linecap: round"/>
     </g>
     <g id="text_5">
      <!-- 89.8 -->
      <g style="fill: #262626" transform="translate(299.241608 324.957594)scale(0.11 -0.11)">
       <use xlink:href="#ArialMT-38"/>
       <use xlink:href="#ArialMT-39" x="55.615234"/>
       <use xlink:href="#ArialMT-2e" x="111.230469"/>
       <use xlink:href="#ArialMT-38" x="139.013672"/>
      </g>
     </g>
    </g>
    <g id="xtick_6">
     <g id="line2d_6">
      <path d="M 368.973223 307.584 
L 368.973223 41.472 
" clip-path="url(#pb77685cd9d)" style="fill: none; stroke: #cccccc; stroke-linecap: round"/>
     </g>
     <g id="text_6">
      <!-- 89.9 -->
      <g style="fill: #262626" transform="translate(358.269708 324.957594)scale(0.11 -0.11)">
       <use xlink:href="#ArialMT-38"/>
       <use xlink:href="#ArialMT-39" x="55.615234"/>
       <use xlink:href="#ArialMT-2e" x="111.230469"/>
       <use xlink:href="#ArialMT-39" x="139.013672"/>
      </g>
     </g>
    </g>
    <g id="text_7">
     <!-- Accuracy -->
     <g style="fill: #262626" transform="translate(211.486875 339.733219)scale(0.12 -0.12)">
      <defs>
       <path id="ArialMT-41" d="M -9 0 
L 1750 4581 
L 2403 4581 
L 4278 0 
L 3588 0 
L 3053 1388 
L 1138 1388 
L 634 0 
L -9 0 
z
M 1313 1881 
L 2866 1881 
L 2388 3150 
Q 2169 3728 2063 4100 
Q 1975 3659 1816 3225 
L 1313 1881 
z
" transform="scale(0.015625)"/>
       <path id="ArialMT-63" d="M 2588 1216 
L 3141 1144 
Q 3050 572 2676 248 
Q 2303 -75 1759 -75 
Q 1078 -75 664 370 
Q 250 816 250 1647 
Q 250 2184 428 2587 
Q 606 2991 970 3192 
Q 1334 3394 1763 3394 
Q 2303 3394 2647 3120 
Q 2991 2847 3088 2344 
L 2541 2259 
Q 2463 2594 2264 2762 
Q 2066 2931 1784 2931 
Q 1359 2931 1093 2626 
Q 828 2322 828 1663 
Q 828 994 1084 691 
Q 1341 388 1753 388 
Q 2084 388 2306 591 
Q 2528 794 2588 1216 
z
" transform="scale(0.015625)"/>
       <path id="ArialMT-75" d="M 2597 0 
L 2597 488 
Q 2209 -75 1544 -75 
Q 1250 -75 995 37 
Q 741 150 617 320 
Q 494 491 444 738 
Q 409 903 409 1263 
L 409 3319 
L 972 3319 
L 972 1478 
Q 972 1038 1006 884 
Q 1059 663 1231 536 
Q 1403 409 1656 409 
Q 1909 409 2131 539 
Q 2353 669 2445 892 
Q 2538 1116 2538 1541 
L 2538 3319 
L 3100 3319 
L 3100 0 
L 2597 0 
z
" transform="scale(0.015625)"/>
       <path id="ArialMT-72" d="M 416 0 
L 416 3319 
L 922 3319 
L 922 2816 
Q 1116 3169 1280 3281 
Q 1444 3394 1641 3394 
Q 1925 3394 2219 3213 
L 2025 2691 
Q 1819 2813 1613 2813 
Q 1428 2813 1281 2702 
Q 1134 2591 1072 2394 
Q 978 2094 978 1738 
L 978 0 
L 416 0 
z
" transform="scale(0.015625)"/>
       <path id="ArialMT-61" d="M 2588 409 
Q 2275 144 1986 34 
Q 1697 -75 1366 -75 
Q 819 -75 525 192 
Q 231 459 231 875 
Q 231 1119 342 1320 
Q 453 1522 633 1644 
Q 813 1766 1038 1828 
Q 1203 1872 1538 1913 
Q 2219 1994 2541 2106 
Q 2544 2222 2544 2253 
Q 2544 2597 2384 2738 
Q 2169 2928 1744 2928 
Q 1347 2928 1158 2789 
Q 969 2650 878 2297 
L 328 2372 
Q 403 2725 575 2942 
Q 747 3159 1072 3276 
Q 1397 3394 1825 3394 
Q 2250 3394 2515 3294 
Q 2781 3194 2906 3042 
Q 3031 2891 3081 2659 
Q 3109 2516 3109 2141 
L 3109 1391 
Q 3109 606 3145 398 
Q 3181 191 3288 0 
L 2700 0 
Q 2613 175 2588 409 
z
M 2541 1666 
Q 2234 1541 1622 1453 
Q 1275 1403 1131 1340 
Q 988 1278 909 1158 
Q 831 1038 831 891 
Q 831 666 1001 516 
Q 1172 366 1500 366 
Q 1825 366 2078 508 
Q 2331 650 2450 897 
Q 2541 1088 2541 1459 
L 2541 1666 
z
" transform="scale(0.015625)"/>
       <path id="ArialMT-79" d="M 397 -1278 
L 334 -750 
Q 519 -800 656 -800 
Q 844 -800 956 -737 
Q 1069 -675 1141 -563 
Q 1194 -478 1313 -144 
Q 1328 -97 1363 -6 
L 103 3319 
L 709 3319 
L 1400 1397 
Q 1534 1031 1641 628 
Q 1738 1016 1872 1384 
L 2581 3319 
L 3144 3319 
L 1881 -56 
Q 1678 -603 1566 -809 
Q 1416 -1088 1222 -1217 
Q 1028 -1347 759 -1347 
Q 597 -1347 397 -1278 
z
" transform="scale(0.015625)"/>
      </defs>
      <use xlink:href="#ArialMT-41"/>
      <use xlink:href="#ArialMT-63" x="66.699219"/>
      <use xlink:href="#ArialMT-63" x="116.699219"/>
      <use xlink:href="#ArialMT-75" x="166.699219"/>
      <use xlink:href="#ArialMT-72" x="222.314453"/>
      <use xlink:href="#ArialMT-61" x="255.615234"/>
      <use xlink:href="#ArialMT-63" x="311.230469"/>
      <use xlink:href="#ArialMT-79" x="361.230469"/>
     </g>
    </g>
   </g>
   <g id="matplotlib.axis_2">
    <g id="ytick_1">
     <g id="line2d_7">
      <path d="M 57.6 299.112026 
L 414.72 299.112026 
" clip-path="url(#pb77685cd9d)" style="fill: none; stroke: #cccccc; stroke-linecap: round"/>
     </g>
     <g id="text_8">
      <!-- 0 -->
      <g style="fill: #262626" transform="translate(41.982969 303.048823)scale(0.11 -0.11)">
       <defs>
        <path id="ArialMT-30" d="M 266 2259 
Q 266 3072 433 3567 
Q 600 4063 929 4331 
Q 1259 4600 1759 4600 
Q 2128 4600 2406 4451 
Q 2684 4303 2865 4023 
Q 3047 3744 3150 3342 
Q 3253 2941 3253 2259 
Q 3253 1453 3087 958 
Q 2922 463 2592 192 
Q 2263 -78 1759 -78 
Q 1097 -78 719 397 
Q 266 969 266 2259 
z
M 844 2259 
Q 844 1131 1108 757 
Q 1372 384 1759 384 
Q 2147 384 2411 759 
Q 2675 1134 2675 2259 
Q 2675 3391 2411 3762 
Q 2147 4134 1753 4134 
Q 1366 4134 1134 3806 
Q 844 3388 844 2259 
z
" transform="scale(0.015625)"/>
       </defs>
       <use xlink:href="#ArialMT-30"/>
      </g>
     </g>
    </g>
    <g id="ytick_2">
     <g id="line2d_8">
      <path d="M 57.6 255.710519 
L 414.72 255.710519 
" clip-path="url(#pb77685cd9d)" style="fill: none; stroke: #cccccc; stroke-linecap: round"/>
     </g>
     <g id="text_9">
      <!-- 200 -->
      <g style="fill: #262626" transform="translate(29.748906 259.647316)scale(0.11 -0.11)">
       <defs>
        <path id="ArialMT-32" d="M 3222 541 
L 3222 0 
L 194 0 
Q 188 203 259 391 
Q 375 700 629 1000 
Q 884 1300 1366 1694 
Q 2113 2306 2375 2664 
Q 2638 3022 2638 3341 
Q 2638 3675 2398 3904 
Q 2159 4134 1775 4134 
Q 1369 4134 1125 3890 
Q 881 3647 878 3216 
L 300 3275 
Q 359 3922 746 4261 
Q 1134 4600 1788 4600 
Q 2447 4600 2831 4234 
Q 3216 3869 3216 3328 
Q 3216 3053 3103 2787 
Q 2991 2522 2730 2228 
Q 2469 1934 1863 1422 
Q 1356 997 1212 845 
Q 1069 694 975 541 
L 3222 541 
z
" transform="scale(0.015625)"/>
       </defs>
       <use xlink:href="#ArialMT-32"/>
       <use xlink:href="#ArialMT-30" x="55.615234"/>
       <use xlink:href="#ArialMT-30" x="111.230469"/>
      </g>
     </g>
    </g>
    <g id="ytick_3">
     <g id="line2d_9">
      <path d="M 57.6 212.309012 
L 414.72 212.309012 
" clip-path="url(#pb77685cd9d)" style="fill: none; stroke: #cccccc; stroke-linecap: round"/>
     </g>
     <g id="text_10">
      <!-- 400 -->
      <g style="fill: #262626" transform="translate(29.748906 216.245809)scale(0.11 -0.11)">
       <use xlink:href="#ArialMT-34"/>
       <use xlink:href="#ArialMT-30" x="55.615234"/>
       <use xlink:href="#ArialMT-30" x="111.230469"/>
      </g>
     </g>
    </g>
    <g id="ytick_4">
     <g id="line2d_10">
      <path d="M 57.6 168.907505 
L 414.72 168.907505 
" clip-path="url(#pb77685cd9d)" style="fill: none; stroke: #cccccc; stroke-linecap: round"/>
     </g>
     <g id="text_11">
      <!-- 600 -->
      <g style="fill: #262626" transform="translate(29.748906 172.844302)scale(0.11 -0.11)">
       <use xlink:href="#ArialMT-36"/>
       <use xlink:href="#ArialMT-30" x="55.615234"/>
       <use xlink:href="#ArialMT-30" x="111.230469"/>
      </g>
     </g>
    </g>
    <g id="ytick_5">
     <g id="line2d_11">
      <path d="M 57.6 125.505998 
L 414.72 125.505998 
" clip-path="url(#pb77685cd9d)" style="fill: none; stroke: #cccccc; stroke-linecap: round"/>
     </g>
     <g id="text_12">
      <!-- 800 -->
      <g style="fill: #262626" transform="translate(29.748906 129.442795)scale(0.11 -0.11)">
       <use xlink:href="#ArialMT-38"/>
       <use xlink:href="#ArialMT-30" x="55.615234"/>
       <use xlink:href="#ArialMT-30" x="111.230469"/>
      </g>
     </g>
    </g>
    <g id="ytick_6">
     <g id="line2d_12">
      <path d="M 57.6 82.104491 
L 414.72 82.104491 
" clip-path="url(#pb77685cd9d)" style="fill: none; stroke: #cccccc; stroke-linecap: round"/>
     </g>
     <g id="text_13">
      <!-- 1000 -->
      <g style="fill: #262626" transform="translate(23.631875 86.041288)scale(0.11 -0.11)">
       <defs>
        <path id="ArialMT-31" d="M 2384 0 
L 1822 0 
L 1822 3584 
Q 1619 3391 1289 3197 
Q 959 3003 697 2906 
L 697 3450 
Q 1169 3672 1522 3987 
Q 1875 4303 2022 4600 
L 2384 4600 
L 2384 0 
z
" transform="scale(0.015625)"/>
       </defs>
       <use xlink:href="#ArialMT-31"/>
       <use xlink:href="#ArialMT-30" x="55.615234"/>
       <use xlink:href="#ArialMT-30" x="111.230469"/>
       <use xlink:href="#ArialMT-30" x="166.845703"/>
      </g>
     </g>
    </g>
    <g id="text_14">
     <!-- Energy Used (J) -->
     <g style="fill: #262626" transform="translate(17.10625 217.873312)rotate(-90)scale(0.12 -0.12)">
      <defs>
       <path id="ArialMT-45" d="M 506 0 
L 506 4581 
L 3819 4581 
L 3819 4041 
L 1113 4041 
L 1113 2638 
L 3647 2638 
L 3647 2100 
L 1113 2100 
L 1113 541 
L 3925 541 
L 3925 0 
L 506 0 
z
" transform="scale(0.015625)"/>
       <path id="ArialMT-6e" d="M 422 0 
L 422 3319 
L 928 3319 
L 928 2847 
Q 1294 3394 1984 3394 
Q 2284 3394 2536 3286 
Q 2788 3178 2913 3003 
Q 3038 2828 3088 2588 
Q 3119 2431 3119 2041 
L 3119 0 
L 2556 0 
L 2556 2019 
Q 2556 2363 2490 2533 
Q 2425 2703 2258 2804 
Q 2091 2906 1866 2906 
Q 1506 2906 1245 2678 
Q 984 2450 984 1813 
L 984 0 
L 422 0 
z
" transform="scale(0.015625)"/>
       <path id="ArialMT-65" d="M 2694 1069 
L 3275 997 
Q 3138 488 2766 206 
Q 2394 -75 1816 -75 
Q 1088 -75 661 373 
Q 234 822 234 1631 
Q 234 2469 665 2931 
Q 1097 3394 1784 3394 
Q 2450 3394 2872 2941 
Q 3294 2488 3294 1666 
Q 3294 1616 3291 1516 
L 816 1516 
Q 847 969 1125 678 
Q 1403 388 1819 388 
Q 2128 388 2347 550 
Q 2566 713 2694 1069 
z
M 847 1978 
L 2700 1978 
Q 2663 2397 2488 2606 
Q 2219 2931 1791 2931 
Q 1403 2931 1139 2672 
Q 875 2413 847 1978 
z
" transform="scale(0.015625)"/>
       <path id="ArialMT-67" d="M 319 -275 
L 866 -356 
Q 900 -609 1056 -725 
Q 1266 -881 1628 -881 
Q 2019 -881 2231 -725 
Q 2444 -569 2519 -288 
Q 2563 -116 2559 434 
Q 2191 0 1641 0 
Q 956 0 581 494 
Q 206 988 206 1678 
Q 206 2153 378 2554 
Q 550 2956 876 3175 
Q 1203 3394 1644 3394 
Q 2231 3394 2613 2919 
L 2613 3319 
L 3131 3319 
L 3131 450 
Q 3131 -325 2973 -648 
Q 2816 -972 2473 -1159 
Q 2131 -1347 1631 -1347 
Q 1038 -1347 672 -1080 
Q 306 -813 319 -275 
z
M 784 1719 
Q 784 1066 1043 766 
Q 1303 466 1694 466 
Q 2081 466 2343 764 
Q 2606 1063 2606 1700 
Q 2606 2309 2336 2618 
Q 2066 2928 1684 2928 
Q 1309 2928 1046 2623 
Q 784 2319 784 1719 
z
" transform="scale(0.015625)"/>
       <path id="ArialMT-20" transform="scale(0.015625)"/>
       <path id="ArialMT-55" d="M 3500 4581 
L 4106 4581 
L 4106 1934 
Q 4106 1244 3950 837 
Q 3794 431 3386 176 
Q 2978 -78 2316 -78 
Q 1672 -78 1262 144 
Q 853 366 678 786 
Q 503 1206 503 1934 
L 503 4581 
L 1109 4581 
L 1109 1938 
Q 1109 1341 1220 1058 
Q 1331 775 1601 622 
Q 1872 469 2263 469 
Q 2931 469 3215 772 
Q 3500 1075 3500 1938 
L 3500 4581 
z
" transform="scale(0.015625)"/>
       <path id="ArialMT-73" d="M 197 991 
L 753 1078 
Q 800 744 1014 566 
Q 1228 388 1613 388 
Q 2000 388 2187 545 
Q 2375 703 2375 916 
Q 2375 1106 2209 1216 
Q 2094 1291 1634 1406 
Q 1016 1563 777 1677 
Q 538 1791 414 1992 
Q 291 2194 291 2438 
Q 291 2659 392 2848 
Q 494 3038 669 3163 
Q 800 3259 1026 3326 
Q 1253 3394 1513 3394 
Q 1903 3394 2198 3281 
Q 2494 3169 2634 2976 
Q 2775 2784 2828 2463 
L 2278 2388 
Q 2241 2644 2061 2787 
Q 1881 2931 1553 2931 
Q 1166 2931 1000 2803 
Q 834 2675 834 2503 
Q 834 2394 903 2306 
Q 972 2216 1119 2156 
Q 1203 2125 1616 2013 
Q 2213 1853 2448 1751 
Q 2684 1650 2818 1456 
Q 2953 1263 2953 975 
Q 2953 694 2789 445 
Q 2625 197 2315 61 
Q 2006 -75 1616 -75 
Q 969 -75 630 194 
Q 291 463 197 991 
z
" transform="scale(0.015625)"/>
       <path id="ArialMT-64" d="M 2575 0 
L 2575 419 
Q 2259 -75 1647 -75 
Q 1250 -75 917 144 
Q 584 363 401 755 
Q 219 1147 219 1656 
Q 219 2153 384 2558 
Q 550 2963 881 3178 
Q 1213 3394 1622 3394 
Q 1922 3394 2156 3267 
Q 2391 3141 2538 2938 
L 2538 4581 
L 3097 4581 
L 3097 0 
L 2575 0 
z
M 797 1656 
Q 797 1019 1065 703 
Q 1334 388 1700 388 
Q 2069 388 2326 689 
Q 2584 991 2584 1609 
Q 2584 2291 2321 2609 
Q 2059 2928 1675 2928 
Q 1300 2928 1048 2622 
Q 797 2316 797 1656 
z
" transform="scale(0.015625)"/>
       <path id="ArialMT-28" d="M 1497 -1347 
Q 1031 -759 709 28 
Q 388 816 388 1659 
Q 388 2403 628 3084 
Q 909 3875 1497 4659 
L 1900 4659 
Q 1522 4009 1400 3731 
Q 1209 3300 1100 2831 
Q 966 2247 966 1656 
Q 966 153 1900 -1347 
L 1497 -1347 
z
" transform="scale(0.015625)"/>
       <path id="ArialMT-4a" d="M 184 1300 
L 731 1375 
Q 753 850 928 656 
Q 1103 463 1413 463 
Q 1641 463 1806 567 
Q 1972 672 2034 851 
Q 2097 1031 2097 1425 
L 2097 4581 
L 2703 4581 
L 2703 1459 
Q 2703 884 2564 568 
Q 2425 253 2123 87 
Q 1822 -78 1416 -78 
Q 813 -78 492 269 
Q 172 616 184 1300 
z
" transform="scale(0.015625)"/>
       <path id="ArialMT-29" d="M 791 -1347 
L 388 -1347 
Q 1322 153 1322 1656 
Q 1322 2244 1188 2822 
Q 1081 3291 891 3722 
Q 769 4003 388 4659 
L 791 4659 
Q 1378 3875 1659 3084 
Q 1900 2403 1900 1659 
Q 1900 816 1576 28 
Q 1253 -759 791 -1347 
z
" transform="scale(0.015625)"/>
      </defs>
      <use xlink:href="#ArialMT-45"/>
      <use xlink:href="#ArialMT-6e" x="66.699219"/>
      <use xlink:href="#ArialMT-65" x="122.314453"/>
      <use xlink:href="#ArialMT-72" x="177.929688"/>
      <use xlink:href="#ArialMT-67" x="211.230469"/>
      <use xlink:href="#ArialMT-79" x="266.845703"/>
      <use xlink:href="#ArialMT-20" x="316.845703"/>
      <use xlink:href="#ArialMT-55" x="344.628906"/>
      <use xlink:href="#ArialMT-73" x="416.845703"/>
      <use xlink:href="#ArialMT-65" x="466.845703"/>
      <use xlink:href="#ArialMT-64" x="522.460938"/>
      <use xlink:href="#ArialMT-20" x="578.076172"/>
      <use xlink:href="#ArialMT-28" x="605.859375"/>
      <use xlink:href="#ArialMT-4a" x="639.160156"/>
      <use xlink:href="#ArialMT-29" x="689.160156"/>
     </g>
    </g>
   </g>
   <g id="line2d_13">
    <defs>
     <path id="m9655d1e7b6" d="M 0 3 
C 0.795609 3 1.55874 2.683901 2.12132 2.12132 
C 2.683901 1.55874 3 0.795609 3 0 
C 3 -0.795609 2.683901 -1.55874 2.12132 -2.12132 
C 1.55874 -2.683901 0.795609 -3 0 -3 
C -0.795609 -3 -1.55874 -2.683901 -2.12132 -2.12132 
C -2.683901 -1.55874 -3 -0.795609 -3 0 
C -3 0.795609 -2.683901 1.55874 -2.12132 2.12132 
C -1.55874 2.683901 -0.795609 3 0 3 
z
" style="stroke: #4c72b0"/>
    </defs>
    <g clip-path="url(#pb77685cd9d)">
     <use xlink:href="#m9655d1e7b6" x="398.487273" y="279.906859" style="fill: #4c72b0; stroke: #4c72b0"/>
     <use xlink:href="#m9655d1e7b6" x="368.973223" y="207.599948" style="fill: #4c72b0; stroke: #4c72b0"/>
     <use xlink:href="#m9655d1e7b6" x="368.973223" y="110.402273" style="fill: #4c72b0; stroke: #4c72b0"/>
     <use xlink:href="#m9655d1e7b6" x="368.973223" y="115.067935" style="fill: #4c72b0; stroke: #4c72b0"/>
     <use xlink:href="#m9655d1e7b6" x="368.973223" y="275.414803" style="fill: #4c72b0; stroke: #4c72b0"/>
     <use xlink:href="#m9655d1e7b6" x="368.973223" y="188.06927" style="fill: #4c72b0; stroke: #4c72b0"/>
     <use xlink:href="#m9655d1e7b6" x="368.973223" y="222.812177" style="fill: #4c72b0; stroke: #4c72b0"/>
     <use xlink:href="#m9655d1e7b6" x="339.459174" y="281.491014" style="fill: #4c72b0; stroke: #4c72b0"/>
     <use xlink:href="#m9655d1e7b6" x="339.459174" y="270.901046" style="fill: #4c72b0; stroke: #4c72b0"/>
     <use xlink:href="#m9655d1e7b6" x="339.459174" y="240.888904" style="fill: #4c72b0; stroke: #4c72b0"/>
     <use xlink:href="#m9655d1e7b6" x="339.459174" y="236.765761" style="fill: #4c72b0; stroke: #4c72b0"/>
     <use xlink:href="#m9655d1e7b6" x="339.459174" y="262.915169" style="fill: #4c72b0; stroke: #4c72b0"/>
     <use xlink:href="#m9655d1e7b6" x="339.459174" y="207.231036" style="fill: #4c72b0; stroke: #4c72b0"/>
     <use xlink:href="#m9655d1e7b6" x="339.459174" y="53.568" style="fill: #4c72b0; stroke: #4c72b0"/>
     <use xlink:href="#m9655d1e7b6" x="339.459174" y="289.324986" style="fill: #4c72b0; stroke: #4c72b0"/>
     <use xlink:href="#m9655d1e7b6" x="339.459174" y="199.896181" style="fill: #4c72b0; stroke: #4c72b0"/>
     <use xlink:href="#m9655d1e7b6" x="339.459174" y="101.895578" style="fill: #4c72b0; stroke: #4c72b0"/>
     <use xlink:href="#m9655d1e7b6" x="339.459174" y="252.846019" style="fill: #4c72b0; stroke: #4c72b0"/>
     <use xlink:href="#m9655d1e7b6" x="339.459174" y="200.069787" style="fill: #4c72b0; stroke: #4c72b0"/>
     <use xlink:href="#m9655d1e7b6" x="309.945124" y="217.560594" style="fill: #4c72b0; stroke: #4c72b0"/>
     <use xlink:href="#m9655d1e7b6" x="309.945124" y="210.638054" style="fill: #4c72b0; stroke: #4c72b0"/>
     <use xlink:href="#m9655d1e7b6" x="309.945124" y="154.823716" style="fill: #4c72b0; stroke: #4c72b0"/>
     <use xlink:href="#m9655d1e7b6" x="309.945124" y="230.429141" style="fill: #4c72b0; stroke: #4c72b0"/>
     <use xlink:href="#m9655d1e7b6" x="309.945124" y="202.066256" style="fill: #4c72b0; stroke: #4c72b0"/>
     <use xlink:href="#m9655d1e7b6" x="309.945124" y="239.04434" style="fill: #4c72b0; stroke: #4c72b0"/>
     <use xlink:href="#m9655d1e7b6" x="309.945124" y="130.215061" style="fill: #4c72b0; stroke: #4c72b0"/>
     <use xlink:href="#m9655d1e7b6" x="309.945124" y="246.053684" style="fill: #4c72b0; stroke: #4c72b0"/>
     <use xlink:href="#m9655d1e7b6" x="309.945124" y="247.768043" style="fill: #4c72b0; stroke: #4c72b0"/>
     <use xlink:href="#m9655d1e7b6" x="309.945124" y="250.024921" style="fill: #4c72b0; stroke: #4c72b0"/>
     <use xlink:href="#m9655d1e7b6" x="309.945124" y="251.977989" style="fill: #4c72b0; stroke: #4c72b0"/>
     <use xlink:href="#m9655d1e7b6" x="309.945124" y="205.885589" style="fill: #4c72b0; stroke: #4c72b0"/>
     <use xlink:href="#m9655d1e7b6" x="309.945124" y="241.670131" style="fill: #4c72b0; stroke: #4c72b0"/>
     <use xlink:href="#m9655d1e7b6" x="309.945124" y="284.181907" style="fill: #4c72b0; stroke: #4c72b0"/>
     <use xlink:href="#m9655d1e7b6" x="309.945124" y="280.622984" style="fill: #4c72b0; stroke: #4c72b0"/>
     <use xlink:href="#m9655d1e7b6" x="309.945124" y="273.852349" style="fill: #4c72b0; stroke: #4c72b0"/>
     <use xlink:href="#m9655d1e7b6" x="309.945124" y="276.109227" style="fill: #4c72b0; stroke: #4c72b0"/>
     <use xlink:href="#m9655d1e7b6" x="280.431074" y="266.929808" style="fill: #4c72b0; stroke: #4c72b0"/>
     <use xlink:href="#m9655d1e7b6" x="280.431074" y="232.620917" style="fill: #4c72b0; stroke: #4c72b0"/>
     <use xlink:href="#m9655d1e7b6" x="280.431074" y="274.959087" style="fill: #4c72b0; stroke: #4c72b0"/>
     <use xlink:href="#m9655d1e7b6" x="280.431074" y="287.285115" style="fill: #4c72b0; stroke: #4c72b0"/>
     <use xlink:href="#m9655d1e7b6" x="280.431074" y="153.890583" style="fill: #4c72b0; stroke: #4c72b0"/>
     <use xlink:href="#m9655d1e7b6" x="280.431074" y="247.008517" style="fill: #4c72b0; stroke: #4c72b0"/>
     <use xlink:href="#m9655d1e7b6" x="280.431074" y="226.696611" style="fill: #4c72b0; stroke: #4c72b0"/>
     <use xlink:href="#m9655d1e7b6" x="280.431074" y="251.804383" style="fill: #4c72b0; stroke: #4c72b0"/>
     <use xlink:href="#m9655d1e7b6" x="280.431074" y="259.377946" style="fill: #4c72b0; stroke: #4c72b0"/>
     <use xlink:href="#m9655d1e7b6" x="280.431074" y="216.692564" style="fill: #4c72b0; stroke: #4c72b0"/>
     <use xlink:href="#m9655d1e7b6" x="280.431074" y="285.70096" style="fill: #4c72b0; stroke: #4c72b0"/>
     <use xlink:href="#m9655d1e7b6" x="280.431074" y="209.466213" style="fill: #4c72b0; stroke: #4c72b0"/>
     <use xlink:href="#m9655d1e7b6" x="280.431074" y="191.107376" style="fill: #4c72b0; stroke: #4c72b0"/>
     <use xlink:href="#m9655d1e7b6" x="280.431074" y="284.420616" style="fill: #4c72b0; stroke: #4c72b0"/>
     <use xlink:href="#m9655d1e7b6" x="280.431074" y="232.946428" style="fill: #4c72b0; stroke: #4c72b0"/>
     <use xlink:href="#m9655d1e7b6" x="250.917025" y="168.7773" style="fill: #4c72b0; stroke: #4c72b0"/>
     <use xlink:href="#m9655d1e7b6" x="250.917025" y="211.67969" style="fill: #4c72b0; stroke: #4c72b0"/>
     <use xlink:href="#m9655d1e7b6" x="250.917025" y="229.756418" style="fill: #4c72b0; stroke: #4c72b0"/>
     <use xlink:href="#m9655d1e7b6" x="250.917025" y="282.901563" style="fill: #4c72b0; stroke: #4c72b0"/>
     <use xlink:href="#m9655d1e7b6" x="250.917025" y="277.04236" style="fill: #4c72b0; stroke: #4c72b0"/>
     <use xlink:href="#m9655d1e7b6" x="250.917025" y="263.479389" style="fill: #4c72b0; stroke: #4c72b0"/>
     <use xlink:href="#m9655d1e7b6" x="250.917025" y="90.611186" style="fill: #4c72b0; stroke: #4c72b0"/>
     <use xlink:href="#m9655d1e7b6" x="250.917025" y="238.219712" style="fill: #4c72b0; stroke: #4c72b0"/>
     <use xlink:href="#m9655d1e7b6" x="250.917025" y="258.271208" style="fill: #4c72b0; stroke: #4c72b0"/>
     <use xlink:href="#m9655d1e7b6" x="250.917025" y="272.680508" style="fill: #4c72b0; stroke: #4c72b0"/>
     <use xlink:href="#m9655d1e7b6" x="250.917025" y="243.08068" style="fill: #4c72b0; stroke: #4c72b0"/>
     <use xlink:href="#m9655d1e7b6" x="250.917025" y="258.032499" style="fill: #4c72b0; stroke: #4c72b0"/>
     <use xlink:href="#m9655d1e7b6" x="250.917025" y="247.030217" style="fill: #4c72b0; stroke: #4c72b0"/>
     <use xlink:href="#m9655d1e7b6" x="250.917025" y="267.125115" style="fill: #4c72b0; stroke: #4c72b0"/>
     <use xlink:href="#m9655d1e7b6" x="250.917025" y="290.236418" style="fill: #4c72b0; stroke: #4c72b0"/>
     <use xlink:href="#m9655d1e7b6" x="250.917025" y="284.355513" style="fill: #4c72b0; stroke: #4c72b0"/>
     <use xlink:href="#m9655d1e7b6" x="221.402975" y="252.520508" style="fill: #4c72b0; stroke: #4c72b0"/>
     <use xlink:href="#m9655d1e7b6" x="221.402975" y="253.301735" style="fill: #4c72b0; stroke: #4c72b0"/>
     <use xlink:href="#m9655d1e7b6" x="221.402975" y="236.765761" style="fill: #4c72b0; stroke: #4c72b0"/>
     <use xlink:href="#m9655d1e7b6" x="221.402975" y="215.021606" style="fill: #4c72b0; stroke: #4c72b0"/>
     <use xlink:href="#m9655d1e7b6" x="221.402975" y="174.028883" style="fill: #4c72b0; stroke: #4c72b0"/>
     <use xlink:href="#m9655d1e7b6" x="221.402975" y="169.450024" style="fill: #4c72b0; stroke: #4c72b0"/>
     <use xlink:href="#m9655d1e7b6" x="191.888926" y="176.915083" style="fill: #4c72b0; stroke: #4c72b0"/>
     <use xlink:href="#m9655d1e7b6" x="191.888926" y="147.380357" style="fill: #4c72b0; stroke: #4c72b0"/>
     <use xlink:href="#m9655d1e7b6" x="191.888926" y="150.722273" style="fill: #4c72b0; stroke: #4c72b0"/>
     <use xlink:href="#m9655d1e7b6" x="191.888926" y="159.033662" style="fill: #4c72b0; stroke: #4c72b0"/>
     <use xlink:href="#m9655d1e7b6" x="191.888926" y="166.520422" style="fill: #4c72b0; stroke: #4c72b0"/>
     <use xlink:href="#m9655d1e7b6" x="191.888926" y="262.220745" style="fill: #4c72b0; stroke: #4c72b0"/>
     <use xlink:href="#m9655d1e7b6" x="191.888926" y="207.274437" style="fill: #4c72b0; stroke: #4c72b0"/>
     <use xlink:href="#m9655d1e7b6" x="191.888926" y="280.536181" style="fill: #4c72b0; stroke: #4c72b0"/>
     <use xlink:href="#m9655d1e7b6" x="191.888926" y="279.451143" style="fill: #4c72b0; stroke: #4c72b0"/>
     <use xlink:href="#m9655d1e7b6" x="191.888926" y="215.867935" style="fill: #4c72b0; stroke: #4c72b0"/>
     <use xlink:href="#m9655d1e7b6" x="191.888926" y="235.485417" style="fill: #4c72b0; stroke: #4c72b0"/>
     <use xlink:href="#m9655d1e7b6" x="191.888926" y="235.550519" style="fill: #4c72b0; stroke: #4c72b0"/>
     <use xlink:href="#m9655d1e7b6" x="191.888926" y="274.937386" style="fill: #4c72b0; stroke: #4c72b0"/>
     <use xlink:href="#m9655d1e7b6" x="191.888926" y="265.25885" style="fill: #4c72b0; stroke: #4c72b0"/>
     <use xlink:href="#m9655d1e7b6" x="162.374876" y="258.488215" style="fill: #4c72b0; stroke: #4c72b0"/>
     <use xlink:href="#m9655d1e7b6" x="162.374876" y="253.410239" style="fill: #4c72b0; stroke: #4c72b0"/>
     <use xlink:href="#m9655d1e7b6" x="162.374876" y="238.241412" style="fill: #4c72b0; stroke: #4c72b0"/>
     <use xlink:href="#m9655d1e7b6" x="162.374876" y="229.647914" style="fill: #4c72b0; stroke: #4c72b0"/>
     <use xlink:href="#m9655d1e7b6" x="132.860826" y="272.485201" style="fill: #4c72b0; stroke: #4c72b0"/>
     <use xlink:href="#m9655d1e7b6" x="132.860826" y="257.75039" style="fill: #4c72b0; stroke: #4c72b0"/>
     <use xlink:href="#m9655d1e7b6" x="132.860826" y="290.388323" style="fill: #4c72b0; stroke: #4c72b0"/>
     <use xlink:href="#m9655d1e7b6" x="132.860826" y="293.209421" style="fill: #4c72b0; stroke: #4c72b0"/>
     <use xlink:href="#m9655d1e7b6" x="132.860826" y="189.78363" style="fill: #4c72b0; stroke: #4c72b0"/>
     <use xlink:href="#m9655d1e7b6" x="103.346777" y="293.46983" style="fill: #4c72b0; stroke: #4c72b0"/>
     <use xlink:href="#m9655d1e7b6" x="103.346777" y="160.096999" style="fill: #4c72b0; stroke: #4c72b0"/>
     <use xlink:href="#m9655d1e7b6" x="103.346777" y="295.488" style="fill: #4c72b0; stroke: #4c72b0"/>
     <use xlink:href="#m9655d1e7b6" x="73.832727" y="291.039346" style="fill: #4c72b0; stroke: #4c72b0"/>
    </g>
   </g>
   <g id="patch_3">
    <path d="M 57.6 307.584 
L 57.6 41.472 
" style="fill: none; stroke: #cccccc; stroke-width: 1.25; stroke-linejoin: miter; stroke-linecap: square"/>
   </g>
   <g id="patch_4">
    <path d="M 414.72 307.584 
L 414.72 41.472 
" style="fill: none; stroke: #cccccc; stroke-width: 1.25; stroke-linejoin: miter; stroke-linecap: square"/>
   </g>
   <g id="patch_5">
    <path d="M 57.6 307.584 
L 414.72 307.584 
" style="fill: none; stroke: #cccccc; stroke-width: 1.25; stroke-linejoin: miter; stroke-linecap: square"/>
   </g>
   <g id="patch_6">
    <path d="M 57.6 41.472 
L 414.72 41.472 
" style="fill: none; stroke: #cccccc; stroke-width: 1.25; stroke-linejoin: miter; stroke-linecap: square"/>
   </g>
   <g id="text_15">
    <!-- Bat -->
    <g style="fill: #262626" transform="translate(227.154375 35.472)scale(0.12 -0.12)">
     <defs>
      <path id="ArialMT-42" d="M 469 0 
L 469 4581 
L 2188 4581 
Q 2713 4581 3030 4442 
Q 3347 4303 3526 4014 
Q 3706 3725 3706 3409 
Q 3706 3116 3547 2856 
Q 3388 2597 3066 2438 
Q 3481 2316 3704 2022 
Q 3928 1728 3928 1328 
Q 3928 1006 3792 729 
Q 3656 453 3456 303 
Q 3256 153 2954 76 
Q 2653 0 2216 0 
L 469 0 
z
M 1075 2656 
L 2066 2656 
Q 2469 2656 2644 2709 
Q 2875 2778 2992 2937 
Q 3109 3097 3109 3338 
Q 3109 3566 3000 3739 
Q 2891 3913 2687 3977 
Q 2484 4041 1991 4041 
L 1075 4041 
L 1075 2656 
z
M 1075 541 
L 2216 541 
Q 2509 541 2628 563 
Q 2838 600 2978 687 
Q 3119 775 3209 942 
Q 3300 1109 3300 1328 
Q 3300 1584 3169 1773 
Q 3038 1963 2805 2039 
Q 2572 2116 2134 2116 
L 1075 2116 
L 1075 541 
z
" transform="scale(0.015625)"/>
      <path id="ArialMT-74" d="M 1650 503 
L 1731 6 
Q 1494 -44 1306 -44 
Q 1000 -44 831 53 
Q 663 150 594 308 
Q 525 466 525 972 
L 525 2881 
L 113 2881 
L 113 3319 
L 525 3319 
L 525 4141 
L 1084 4478 
L 1084 3319 
L 1650 3319 
L 1650 2881 
L 1084 2881 
L 1084 941 
Q 1084 700 1114 631 
Q 1144 563 1211 522 
Q 1278 481 1403 481 
Q 1497 481 1650 503 
z
" transform="scale(0.015625)"/>
     </defs>
     <use xlink:href="#ArialMT-42"/>
     <use xlink:href="#ArialMT-61" x="66.699219"/>
     <use xlink:href="#ArialMT-74" x="122.314453"/>
    </g>
   </g>
  </g>
 </g>
 <defs>
  <clipPath id="pb77685cd9d">
   <rect x="57.6" y="41.472" width="357.12" height="266.112"/>
  </clipPath>
 </defs>
</svg>
