<?xml version="1.0" encoding="utf-8" standalone="no"?>
<!DOCTYPE svg PUBLIC "-//W3C//DTD SVG 1.1//EN"
  "http://www.w3.org/Graphics/SVG/1.1/DTD/svg11.dtd">
<svg xmlns:xlink="http://www.w3.org/1999/xlink" width="460.8pt" height="345.6pt" viewBox="0 0 460.8 345.6" xmlns="http://www.w3.org/2000/svg" version="1.1">
 <metadata>
  <rdf:RDF xmlns:dc="http://purl.org/dc/elements/1.1/" xmlns:cc="http://creativecommons.org/ns#" xmlns:rdf="http://www.w3.org/1999/02/22-rdf-syntax-ns#">
   <cc:Work>
    <dc:type rdf:resource="http://purl.org/dc/dcmitype/StillImage"/>
    <dc:date>2022-10-12T19:39:56.644670</dc:date>
    <dc:format>image/svg+xml</dc:format>
    <dc:creator>
     <cc:Agent>
      <dc:title>Matplotlib v3.5.3, https://matplotlib.org/</dc:title>
     </cc:Agent>
    </dc:creator>
   </cc:Work>
  </rdf:RDF>
 </metadata>
 <defs>
  <style type="text/css">*{stroke-linejoin: round; stroke-linecap: butt}</style>
 </defs>
 <g id="figure_1">
  <g id="patch_1">
   <path d="M 0 345.6 
L 460.8 345.6 
L 460.8 0 
L 0 0 
z
" style="fill: #ffffff"/>
  </g>
  <g id="axes_1">
   <g id="patch_2">
    <path d="M 57.6 307.584 
L 414.72 307.584 
L 414.72 41.472 
L 57.6 41.472 
z
" style="fill: #ffffff"/>
   </g>
   <g id="patch_3">
    <path d="M 61.1712 307.584 
L 66.88512 307.584 
L 66.88512 273.882529 
L 61.1712 273.882529 
z
" clip-path="url(#pe32f6e8636)" style="fill: #3274a1"/>
   </g>
   <g id="patch_4">
    <path d="M 96.8832 307.584 
L 102.59712 307.584 
L 102.59712 251.785227 
L 96.8832 251.785227 
z
" clip-path="url(#pe32f6e8636)" style="fill: #3274a1"/>
   </g>
   <g id="patch_5">
    <path d="M 132.5952 307.584 
L 138.30912 307.584 
L 138.30912 237.588637 
L 132.5952 237.588637 
z
" clip-path="url(#pe32f6e8636)" style="fill: #3274a1"/>
   </g>
   <g id="patch_6">
    <path d="M 168.3072 307.584 
L 174.02112 307.584 
L 174.02112 204.751306 
L 168.3072 204.751306 
z
" clip-path="url(#pe32f6e8636)" style="fill: #3274a1"/>
   </g>
   <g id="patch_7">
    <path d="M 204.0192 307.584 
L 209.73312 307.584 
L 209.73312 180.802276 
L 204.0192 180.802276 
z
" clip-path="url(#pe32f6e8636)" style="fill: #3274a1"/>
   </g>
   <g id="patch_8">
    <path d="M 239.7312 307.584 
L 245.44512 307.584 
L 245.44512 159.692563 
L 239.7312 159.692563 
z
" clip-path="url(#pe32f6e8636)" style="fill: #3274a1"/>
   </g>
   <g id="patch_9">
    <path d="M 275.4432 307.584 
L 281.15712 307.584 
L 281.15712 130.682139 
L 275.4432 130.682139 
z
" clip-path="url(#pe32f6e8636)" style="fill: #3274a1"/>
   </g>
   <g id="patch_10">
    <path d="M 311.1552 307.584 
L 316.86912 307.584 
L 316.86912 96.85722 
L 311.1552 96.85722 
z
" clip-path="url(#pe32f6e8636)" style="fill: #3274a1"/>
   </g>
   <g id="patch_11">
    <path d="M 346.8672 307.584 
L 352.58112 307.584 
L 352.58112 95.375836 
L 346.8672 95.375836 
z
" clip-path="url(#pe32f6e8636)" style="fill: #3274a1"/>
   </g>
   <g id="patch_12">
    <path d="M 382.5792 307.584 
L 388.29312 307.584 
L 388.29312 61.180571 
L 382.5792 61.180571 
z
" clip-path="url(#pe32f6e8636)" style="fill: #3274a1"/>
   </g>
   <g id="patch_13">
    <path d="M 66.88512 307.584 
L 72.59904 307.584 
L 72.59904 275.857707 
L 66.88512 275.857707 
z
" clip-path="url(#pe32f6e8636)" style="fill: #e1812c"/>
   </g>
   <g id="patch_14">
    <path d="M 102.59712 307.584 
L 108.31104 307.584 
L 108.31104 257.587312 
L 102.59712 257.587312 
z
" clip-path="url(#pe32f6e8636)" style="fill: #e1812c"/>
   </g>
   <g id="patch_15">
    <path d="M 138.30912 307.584 
L 144.02304 307.584 
L 144.02304 231.786552 
L 138.30912 231.786552 
z
" clip-path="url(#pe32f6e8636)" style="fill: #e1812c"/>
   </g>
   <g id="patch_16">
    <path d="M 174.02112 307.584 
L 179.73504 307.584 
L 179.73504 207.96097 
L 174.02112 207.96097 
z
" clip-path="url(#pe32f6e8636)" style="fill: #e1812c"/>
   </g>
   <g id="patch_17">
    <path d="M 209.73312 307.584 
L 215.44704 307.584 
L 215.44704 179.56779 
L 209.73312 179.56779 
z
" clip-path="url(#pe32f6e8636)" style="fill: #e1812c"/>
   </g>
   <g id="patch_18">
    <path d="M 245.44512 307.584 
L 251.15904 307.584 
L 251.15904 156.236002 
L 245.44512 156.236002 
z
" clip-path="url(#pe32f6e8636)" style="fill: #e1812c"/>
   </g>
   <g id="patch_19">
    <path d="M 281.15712 307.584 
L 286.87104 307.584 
L 286.87104 133.891803 
L 281.15712 133.891803 
z
" clip-path="url(#pe32f6e8636)" style="fill: #e1812c"/>
   </g>
   <g id="patch_20">
    <path d="M 316.86912 307.584 
L 322.58304 307.584 
L 322.58304 110.683464 
L 316.86912 110.683464 
z
" clip-path="url(#pe32f6e8636)" style="fill: #e1812c"/>
   </g>
   <g id="patch_21">
    <path d="M 352.58112 307.584 
L 358.29504 307.584 
L 358.29504 79.94476 
L 352.58112 79.94476 
z
" clip-path="url(#pe32f6e8636)" style="fill: #e1812c"/>
   </g>
   <g id="patch_22">
    <path d="M 388.29312 307.584 
L 394.00704 307.584 
L 394.00704 61.674365 
L 388.29312 61.674365 
z
" clip-path="url(#pe32f6e8636)" style="fill: #e1812c"/>
   </g>
   <g id="patch_23">
    <path d="M 72.59904 307.584 
L 78.31296 307.584 
L 78.31296 279.808062 
L 72.59904 279.808062 
z
" clip-path="url(#pe32f6e8636)" style="fill: #3a923a"/>
   </g>
   <g id="patch_24">
    <path d="M 108.31104 307.584 
L 114.02496 307.584 
L 114.02496 249.439704 
L 108.31104 249.439704 
z
" clip-path="url(#pe32f6e8636)" style="fill: #3a923a"/>
   </g>
   <g id="patch_25">
    <path d="M 144.02304 307.584 
L 149.73696 307.584 
L 149.73696 229.31758 
L 144.02304 229.31758 
z
" clip-path="url(#pe32f6e8636)" style="fill: #3a923a"/>
   </g>
   <g id="patch_26">
    <path d="M 179.73504 307.584 
L 185.44896 307.584 
L 185.44896 203.640269 
L 179.73504 203.640269 
z
" clip-path="url(#pe32f6e8636)" style="fill: #3a923a"/>
   </g>
   <g id="patch_27">
    <path d="M 215.44704 307.584 
L 221.16096 307.584 
L 221.16096 177.839509 
L 215.44704 177.839509 
z
" clip-path="url(#pe32f6e8636)" style="fill: #3a923a"/>
   </g>
   <g id="patch_28">
    <path d="M 251.15904 307.584 
L 256.87296 307.584 
L 256.87296 152.409095 
L 251.15904 152.409095 
z
" clip-path="url(#pe32f6e8636)" style="fill: #3a923a"/>
   </g>
   <g id="patch_29">
    <path d="M 286.87104 307.584 
L 292.58496 307.584 
L 292.58496 151.05116 
L 286.87104 151.05116 
z
" clip-path="url(#pe32f6e8636)" style="fill: #3a923a"/>
   </g>
   <g id="patch_30">
    <path d="M 322.58304 307.584 
L 328.29696 307.584 
L 328.29696 118.954521 
L 322.58304 118.954521 
z
" clip-path="url(#pe32f6e8636)" style="fill: #3a923a"/>
   </g>
   <g id="patch_31">
    <path d="M 358.29504 307.584 
L 364.00896 307.584 
L 364.00896 116.732446 
L 358.29504 116.732446 
z
" clip-path="url(#pe32f6e8636)" style="fill: #3a923a"/>
   </g>
   <g id="patch_32">
    <path d="M 394.00704 307.584 
L 399.72096 307.584 
L 399.72096 91.425481 
L 394.00704 91.425481 
z
" clip-path="url(#pe32f6e8636)" style="fill: #3a923a"/>
   </g>
   <g id="patch_33">
    <path d="M 78.31296 307.584 
L 84.02688 307.584 
L 84.02688 271.290108 
L 78.31296 271.290108 
z
" clip-path="url(#pe32f6e8636)" style="fill: #c03d3e"/>
   </g>
   <g id="patch_34">
    <path d="M 114.02496 307.584 
L 119.73888 307.584 
L 119.73888 257.463864 
L 114.02496 257.463864 
z
" clip-path="url(#pe32f6e8636)" style="fill: #c03d3e"/>
   </g>
   <g id="patch_35">
    <path d="M 149.73696 307.584 
L 155.45088 307.584 
L 155.45088 229.070683 
L 149.73696 229.070683 
z
" clip-path="url(#pe32f6e8636)" style="fill: #c03d3e"/>
   </g>
   <g id="patch_36">
    <path d="M 185.44896 307.584 
L 191.16288 307.584 
L 191.16288 198.085081 
L 185.44896 198.085081 
z
" clip-path="url(#pe32f6e8636)" style="fill: #c03d3e"/>
   </g>
   <g id="patch_37">
    <path d="M 221.16096 307.584 
L 226.87488 307.584 
L 226.87488 158.458077 
L 221.16096 158.458077 
z
" clip-path="url(#pe32f6e8636)" style="fill: #c03d3e"/>
   </g>
   <g id="patch_38">
    <path d="M 256.87296 307.584 
L 262.58688 307.584 
L 262.58688 155.618759 
L 256.87296 155.618759 
z
" clip-path="url(#pe32f6e8636)" style="fill: #c03d3e"/>
   </g>
   <g id="patch_39">
    <path d="M 292.58496 307.584 
L 298.29888 307.584 
L 298.29888 127.96627 
L 292.58496 127.96627 
z
" clip-path="url(#pe32f6e8636)" style="fill: #c03d3e"/>
   </g>
   <g id="patch_40">
    <path d="M 328.29696 307.584 
L 334.01088 307.584 
L 334.01088 96.363425 
L 328.29696 96.363425 
z
" clip-path="url(#pe32f6e8636)" style="fill: #c03d3e"/>
   </g>
   <g id="patch_41">
    <path d="M 364.00896 307.584 
L 369.72288 307.584 
L 369.72288 80.191657 
L 364.00896 80.191657 
z
" clip-path="url(#pe32f6e8636)" style="fill: #c03d3e"/>
   </g>
   <g id="patch_42">
    <path d="M 399.72096 307.584 
L 405.43488 307.584 
L 405.43488 64.266786 
L 399.72096 64.266786 
z
" clip-path="url(#pe32f6e8636)" style="fill: #c03d3e"/>
   </g>
   <g id="patch_43">
    <path d="M 84.02688 307.584 
L 89.7408 307.584 
L 89.7408 272.0308 
L 84.02688 272.0308 
z
" clip-path="url(#pe32f6e8636)" style="fill: #9372b2"/>
   </g>
   <g id="patch_44">
    <path d="M 119.73888 307.584 
L 125.4528 307.584 
L 125.4528 258.204555 
L 119.73888 258.204555 
z
" clip-path="url(#pe32f6e8636)" style="fill: #9372b2"/>
   </g>
   <g id="patch_45">
    <path d="M 155.45088 307.584 
L 161.1648 307.584 
L 161.1648 226.725159 
L 155.45088 226.725159 
z
" clip-path="url(#pe32f6e8636)" style="fill: #9372b2"/>
   </g>
   <g id="patch_46">
    <path d="M 191.16288 307.584 
L 196.8768 307.584 
L 196.8768 193.147137 
L 191.16288 193.147137 
z
" clip-path="url(#pe32f6e8636)" style="fill: #9372b2"/>
   </g>
   <g id="patch_47">
    <path d="M 226.87488 307.584 
L 232.5888 307.584 
L 232.5888 186.974706 
L 226.87488 186.974706 
z
" clip-path="url(#pe32f6e8636)" style="fill: #9372b2"/>
   </g>
   <g id="patch_48">
    <path d="M 262.58688 307.584 
L 268.3008 307.584 
L 268.3008 155.001516 
L 262.58688 155.001516 
z
" clip-path="url(#pe32f6e8636)" style="fill: #9372b2"/>
   </g>
   <g id="patch_49">
    <path d="M 298.29888 307.584 
L 304.0128 307.584 
L 304.0128 148.211842 
L 298.29888 148.211842 
z
" clip-path="url(#pe32f6e8636)" style="fill: #9372b2"/>
   </g>
   <g id="patch_50">
    <path d="M 334.01088 307.584 
L 339.7248 307.584 
L 339.7248 134.632495 
L 334.01088 134.632495 
z
" clip-path="url(#pe32f6e8636)" style="fill: #9372b2"/>
   </g>
   <g id="patch_51">
    <path d="M 369.72288 307.584 
L 375.4368 307.584 
L 375.4368 102.535856 
L 369.72288 102.535856 
z
" clip-path="url(#pe32f6e8636)" style="fill: #9372b2"/>
   </g>
   <g id="patch_52">
    <path d="M 405.43488 307.584 
L 411.1488 307.584 
L 411.1488 54.144 
L 405.43488 54.144 
z
" clip-path="url(#pe32f6e8636)" style="fill: #9372b2"/>
   </g>
   <g id="matplotlib.axis_1">
    <g id="xtick_1">
     <g id="line2d_1">
      <defs>
       <path id="m58fee58231" d="M 0 0 
L 0 3.5 
" style="stroke: #000000; stroke-width: 0.8"/>
      </defs>
      <g>
       <use xlink:href="#m58fee58231" x="75.456" y="307.584" style="stroke: #000000; stroke-width: 0.8"/>
      </g>
     </g>
     <g id="text_1">
      <!-- 50 -->
      <g transform="translate(69.0935 322.182437)scale(0.1 -0.1)">
       <defs>
        <path id="DejaVuSans-35" d="M 691 4666 
L 3169 4666 
L 3169 4134 
L 1269 4134 
L 1269 2991 
Q 1406 3038 1543 3061 
Q 1681 3084 1819 3084 
Q 2600 3084 3056 2656 
Q 3513 2228 3513 1497 
Q 3513 744 3044 326 
Q 2575 -91 1722 -91 
Q 1428 -91 1123 -41 
Q 819 9 494 109 
L 494 744 
Q 775 591 1075 516 
Q 1375 441 1709 441 
Q 2250 441 2565 725 
Q 2881 1009 2881 1497 
Q 2881 1984 2565 2268 
Q 2250 2553 1709 2553 
Q 1456 2553 1204 2497 
Q 953 2441 691 2322 
L 691 4666 
z
" transform="scale(0.015625)"/>
        <path id="DejaVuSans-30" d="M 2034 4250 
Q 1547 4250 1301 3770 
Q 1056 3291 1056 2328 
Q 1056 1369 1301 889 
Q 1547 409 2034 409 
Q 2525 409 2770 889 
Q 3016 1369 3016 2328 
Q 3016 3291 2770 3770 
Q 2525 4250 2034 4250 
z
M 2034 4750 
Q 2819 4750 3233 4129 
Q 3647 3509 3647 2328 
Q 3647 1150 3233 529 
Q 2819 -91 2034 -91 
Q 1250 -91 836 529 
Q 422 1150 422 2328 
Q 422 3509 836 4129 
Q 1250 4750 2034 4750 
z
" transform="scale(0.015625)"/>
       </defs>
       <use xlink:href="#DejaVuSans-35"/>
       <use xlink:href="#DejaVuSans-30" x="63.623047"/>
      </g>
     </g>
    </g>
    <g id="xtick_2">
     <g id="line2d_2">
      <g>
       <use xlink:href="#m58fee58231" x="111.168" y="307.584" style="stroke: #000000; stroke-width: 0.8"/>
      </g>
     </g>
     <g id="text_2">
      <!-- 100 -->
      <g transform="translate(101.62425 322.182437)scale(0.1 -0.1)">
       <defs>
        <path id="DejaVuSans-31" d="M 794 531 
L 1825 531 
L 1825 4091 
L 703 3866 
L 703 4441 
L 1819 4666 
L 2450 4666 
L 2450 531 
L 3481 531 
L 3481 0 
L 794 0 
L 794 531 
z
" transform="scale(0.015625)"/>
       </defs>
       <use xlink:href="#DejaVuSans-31"/>
       <use xlink:href="#DejaVuSans-30" x="63.623047"/>
       <use xlink:href="#DejaVuSans-30" x="127.246094"/>
      </g>
     </g>
    </g>
    <g id="xtick_3">
     <g id="line2d_3">
      <g>
       <use xlink:href="#m58fee58231" x="146.88" y="307.584" style="stroke: #000000; stroke-width: 0.8"/>
      </g>
     </g>
     <g id="text_3">
      <!-- 150 -->
      <g transform="translate(137.33625 322.182437)scale(0.1 -0.1)">
       <use xlink:href="#DejaVuSans-31"/>
       <use xlink:href="#DejaVuSans-35" x="63.623047"/>
       <use xlink:href="#DejaVuSans-30" x="127.246094"/>
      </g>
     </g>
    </g>
    <g id="xtick_4">
     <g id="line2d_4">
      <g>
       <use xlink:href="#m58fee58231" x="182.592" y="307.584" style="stroke: #000000; stroke-width: 0.8"/>
      </g>
     </g>
     <g id="text_4">
      <!-- 200 -->
      <g transform="translate(173.04825 322.182437)scale(0.1 -0.1)">
       <defs>
        <path id="DejaVuSans-32" d="M 1228 531 
L 3431 531 
L 3431 0 
L 469 0 
L 469 531 
Q 828 903 1448 1529 
Q 2069 2156 2228 2338 
Q 2531 2678 2651 2914 
Q 2772 3150 2772 3378 
Q 2772 3750 2511 3984 
Q 2250 4219 1831 4219 
Q 1534 4219 1204 4116 
Q 875 4013 500 3803 
L 500 4441 
Q 881 4594 1212 4672 
Q 1544 4750 1819 4750 
Q 2544 4750 2975 4387 
Q 3406 4025 3406 3419 
Q 3406 3131 3298 2873 
Q 3191 2616 2906 2266 
Q 2828 2175 2409 1742 
Q 1991 1309 1228 531 
z
" transform="scale(0.015625)"/>
       </defs>
       <use xlink:href="#DejaVuSans-32"/>
       <use xlink:href="#DejaVuSans-30" x="63.623047"/>
       <use xlink:href="#DejaVuSans-30" x="127.246094"/>
      </g>
     </g>
    </g>
    <g id="xtick_5">
     <g id="line2d_5">
      <g>
       <use xlink:href="#m58fee58231" x="218.304" y="307.584" style="stroke: #000000; stroke-width: 0.8"/>
      </g>
     </g>
     <g id="text_5">
      <!-- 250 -->
      <g transform="translate(208.76025 322.182437)scale(0.1 -0.1)">
       <use xlink:href="#DejaVuSans-32"/>
       <use xlink:href="#DejaVuSans-35" x="63.623047"/>
       <use xlink:href="#DejaVuSans-30" x="127.246094"/>
      </g>
     </g>
    </g>
    <g id="xtick_6">
     <g id="line2d_6">
      <g>
       <use xlink:href="#m58fee58231" x="254.016" y="307.584" style="stroke: #000000; stroke-width: 0.8"/>
      </g>
     </g>
     <g id="text_6">
      <!-- 300 -->
      <g transform="translate(244.47225 322.182437)scale(0.1 -0.1)">
       <defs>
        <path id="DejaVuSans-33" d="M 2597 2516 
Q 3050 2419 3304 2112 
Q 3559 1806 3559 1356 
Q 3559 666 3084 287 
Q 2609 -91 1734 -91 
Q 1441 -91 1130 -33 
Q 819 25 488 141 
L 488 750 
Q 750 597 1062 519 
Q 1375 441 1716 441 
Q 2309 441 2620 675 
Q 2931 909 2931 1356 
Q 2931 1769 2642 2001 
Q 2353 2234 1838 2234 
L 1294 2234 
L 1294 2753 
L 1863 2753 
Q 2328 2753 2575 2939 
Q 2822 3125 2822 3475 
Q 2822 3834 2567 4026 
Q 2313 4219 1838 4219 
Q 1578 4219 1281 4162 
Q 984 4106 628 3988 
L 628 4550 
Q 988 4650 1302 4700 
Q 1616 4750 1894 4750 
Q 2613 4750 3031 4423 
Q 3450 4097 3450 3541 
Q 3450 3153 3228 2886 
Q 3006 2619 2597 2516 
z
" transform="scale(0.015625)"/>
       </defs>
       <use xlink:href="#DejaVuSans-33"/>
       <use xlink:href="#DejaVuSans-30" x="63.623047"/>
       <use xlink:href="#DejaVuSans-30" x="127.246094"/>
      </g>
     </g>
    </g>
    <g id="xtick_7">
     <g id="line2d_7">
      <g>
       <use xlink:href="#m58fee58231" x="289.728" y="307.584" style="stroke: #000000; stroke-width: 0.8"/>
      </g>
     </g>
     <g id="text_7">
      <!-- 350 -->
      <g transform="translate(280.18425 322.182437)scale(0.1 -0.1)">
       <use xlink:href="#DejaVuSans-33"/>
       <use xlink:href="#DejaVuSans-35" x="63.623047"/>
       <use xlink:href="#DejaVuSans-30" x="127.246094"/>
      </g>
     </g>
    </g>
    <g id="xtick_8">
     <g id="line2d_8">
      <g>
       <use xlink:href="#m58fee58231" x="325.44" y="307.584" style="stroke: #000000; stroke-width: 0.8"/>
      </g>
     </g>
     <g id="text_8">
      <!-- 400 -->
      <g transform="translate(315.89625 322.182437)scale(0.1 -0.1)">
       <defs>
        <path id="DejaVuSans-34" d="M 2419 4116 
L 825 1625 
L 2419 1625 
L 2419 4116 
z
M 2253 4666 
L 3047 4666 
L 3047 1625 
L 3713 1625 
L 3713 1100 
L 3047 1100 
L 3047 0 
L 2419 0 
L 2419 1100 
L 313 1100 
L 313 1709 
L 2253 4666 
z
" transform="scale(0.015625)"/>
       </defs>
       <use xlink:href="#DejaVuSans-34"/>
       <use xlink:href="#DejaVuSans-30" x="63.623047"/>
       <use xlink:href="#DejaVuSans-30" x="127.246094"/>
      </g>
     </g>
    </g>
    <g id="xtick_9">
     <g id="line2d_9">
      <g>
       <use xlink:href="#m58fee58231" x="361.152" y="307.584" style="stroke: #000000; stroke-width: 0.8"/>
      </g>
     </g>
     <g id="text_9">
      <!-- 450 -->
      <g transform="translate(351.60825 322.182437)scale(0.1 -0.1)">
       <use xlink:href="#DejaVuSans-34"/>
       <use xlink:href="#DejaVuSans-35" x="63.623047"/>
       <use xlink:href="#DejaVuSans-30" x="127.246094"/>
      </g>
     </g>
    </g>
    <g id="xtick_10">
     <g id="line2d_10">
      <g>
       <use xlink:href="#m58fee58231" x="396.864" y="307.584" style="stroke: #000000; stroke-width: 0.8"/>
      </g>
     </g>
     <g id="text_10">
      <!-- 500 -->
      <g transform="translate(387.32025 322.182437)scale(0.1 -0.1)">
       <use xlink:href="#DejaVuSans-35"/>
       <use xlink:href="#DejaVuSans-30" x="63.623047"/>
       <use xlink:href="#DejaVuSans-30" x="127.246094"/>
      </g>
     </g>
    </g>
    <g id="text_11">
     <!-- n_estimators -->
     <g transform="translate(203.846719 335.860562)scale(0.1 -0.1)">
      <defs>
       <path id="DejaVuSans-6e" d="M 3513 2113 
L 3513 0 
L 2938 0 
L 2938 2094 
Q 2938 2591 2744 2837 
Q 2550 3084 2163 3084 
Q 1697 3084 1428 2787 
Q 1159 2491 1159 1978 
L 1159 0 
L 581 0 
L 581 3500 
L 1159 3500 
L 1159 2956 
Q 1366 3272 1645 3428 
Q 1925 3584 2291 3584 
Q 2894 3584 3203 3211 
Q 3513 2838 3513 2113 
z
" transform="scale(0.015625)"/>
       <path id="DejaVuSans-5f" d="M 3263 -1063 
L 3263 -1509 
L -63 -1509 
L -63 -1063 
L 3263 -1063 
z
" transform="scale(0.015625)"/>
       <path id="DejaVuSans-65" d="M 3597 1894 
L 3597 1613 
L 953 1613 
Q 991 1019 1311 708 
Q 1631 397 2203 397 
Q 2534 397 2845 478 
Q 3156 559 3463 722 
L 3463 178 
Q 3153 47 2828 -22 
Q 2503 -91 2169 -91 
Q 1331 -91 842 396 
Q 353 884 353 1716 
Q 353 2575 817 3079 
Q 1281 3584 2069 3584 
Q 2775 3584 3186 3129 
Q 3597 2675 3597 1894 
z
M 3022 2063 
Q 3016 2534 2758 2815 
Q 2500 3097 2075 3097 
Q 1594 3097 1305 2825 
Q 1016 2553 972 2059 
L 3022 2063 
z
" transform="scale(0.015625)"/>
       <path id="DejaVuSans-73" d="M 2834 3397 
L 2834 2853 
Q 2591 2978 2328 3040 
Q 2066 3103 1784 3103 
Q 1356 3103 1142 2972 
Q 928 2841 928 2578 
Q 928 2378 1081 2264 
Q 1234 2150 1697 2047 
L 1894 2003 
Q 2506 1872 2764 1633 
Q 3022 1394 3022 966 
Q 3022 478 2636 193 
Q 2250 -91 1575 -91 
Q 1294 -91 989 -36 
Q 684 19 347 128 
L 347 722 
Q 666 556 975 473 
Q 1284 391 1588 391 
Q 1994 391 2212 530 
Q 2431 669 2431 922 
Q 2431 1156 2273 1281 
Q 2116 1406 1581 1522 
L 1381 1569 
Q 847 1681 609 1914 
Q 372 2147 372 2553 
Q 372 3047 722 3315 
Q 1072 3584 1716 3584 
Q 2034 3584 2315 3537 
Q 2597 3491 2834 3397 
z
" transform="scale(0.015625)"/>
       <path id="DejaVuSans-74" d="M 1172 4494 
L 1172 3500 
L 2356 3500 
L 2356 3053 
L 1172 3053 
L 1172 1153 
Q 1172 725 1289 603 
Q 1406 481 1766 481 
L 2356 481 
L 2356 0 
L 1766 0 
Q 1100 0 847 248 
Q 594 497 594 1153 
L 594 3053 
L 172 3053 
L 172 3500 
L 594 3500 
L 594 4494 
L 1172 4494 
z
" transform="scale(0.015625)"/>
       <path id="DejaVuSans-69" d="M 603 3500 
L 1178 3500 
L 1178 0 
L 603 0 
L 603 3500 
z
M 603 4863 
L 1178 4863 
L 1178 4134 
L 603 4134 
L 603 4863 
z
" transform="scale(0.015625)"/>
       <path id="DejaVuSans-6d" d="M 3328 2828 
Q 3544 3216 3844 3400 
Q 4144 3584 4550 3584 
Q 5097 3584 5394 3201 
Q 5691 2819 5691 2113 
L 5691 0 
L 5113 0 
L 5113 2094 
Q 5113 2597 4934 2840 
Q 4756 3084 4391 3084 
Q 3944 3084 3684 2787 
Q 3425 2491 3425 1978 
L 3425 0 
L 2847 0 
L 2847 2094 
Q 2847 2600 2669 2842 
Q 2491 3084 2119 3084 
Q 1678 3084 1418 2786 
Q 1159 2488 1159 1978 
L 1159 0 
L 581 0 
L 581 3500 
L 1159 3500 
L 1159 2956 
Q 1356 3278 1631 3431 
Q 1906 3584 2284 3584 
Q 2666 3584 2933 3390 
Q 3200 3197 3328 2828 
z
" transform="scale(0.015625)"/>
       <path id="DejaVuSans-61" d="M 2194 1759 
Q 1497 1759 1228 1600 
Q 959 1441 959 1056 
Q 959 750 1161 570 
Q 1363 391 1709 391 
Q 2188 391 2477 730 
Q 2766 1069 2766 1631 
L 2766 1759 
L 2194 1759 
z
M 3341 1997 
L 3341 0 
L 2766 0 
L 2766 531 
Q 2569 213 2275 61 
Q 1981 -91 1556 -91 
Q 1019 -91 701 211 
Q 384 513 384 1019 
Q 384 1609 779 1909 
Q 1175 2209 1959 2209 
L 2766 2209 
L 2766 2266 
Q 2766 2663 2505 2880 
Q 2244 3097 1772 3097 
Q 1472 3097 1187 3025 
Q 903 2953 641 2809 
L 641 3341 
Q 956 3463 1253 3523 
Q 1550 3584 1831 3584 
Q 2591 3584 2966 3190 
Q 3341 2797 3341 1997 
z
" transform="scale(0.015625)"/>
       <path id="DejaVuSans-6f" d="M 1959 3097 
Q 1497 3097 1228 2736 
Q 959 2375 959 1747 
Q 959 1119 1226 758 
Q 1494 397 1959 397 
Q 2419 397 2687 759 
Q 2956 1122 2956 1747 
Q 2956 2369 2687 2733 
Q 2419 3097 1959 3097 
z
M 1959 3584 
Q 2709 3584 3137 3096 
Q 3566 2609 3566 1747 
Q 3566 888 3137 398 
Q 2709 -91 1959 -91 
Q 1206 -91 779 398 
Q 353 888 353 1747 
Q 353 2609 779 3096 
Q 1206 3584 1959 3584 
z
" transform="scale(0.015625)"/>
       <path id="DejaVuSans-72" d="M 2631 2963 
Q 2534 3019 2420 3045 
Q 2306 3072 2169 3072 
Q 1681 3072 1420 2755 
Q 1159 2438 1159 1844 
L 1159 0 
L 581 0 
L 581 3500 
L 1159 3500 
L 1159 2956 
Q 1341 3275 1631 3429 
Q 1922 3584 2338 3584 
Q 2397 3584 2469 3576 
Q 2541 3569 2628 3553 
L 2631 2963 
z
" transform="scale(0.015625)"/>
      </defs>
      <use xlink:href="#DejaVuSans-6e"/>
      <use xlink:href="#DejaVuSans-5f" x="63.378906"/>
      <use xlink:href="#DejaVuSans-65" x="113.378906"/>
      <use xlink:href="#DejaVuSans-73" x="174.902344"/>
      <use xlink:href="#DejaVuSans-74" x="227.001953"/>
      <use xlink:href="#DejaVuSans-69" x="266.210938"/>
      <use xlink:href="#DejaVuSans-6d" x="293.994141"/>
      <use xlink:href="#DejaVuSans-61" x="391.40625"/>
      <use xlink:href="#DejaVuSans-74" x="452.685547"/>
      <use xlink:href="#DejaVuSans-6f" x="491.894531"/>
      <use xlink:href="#DejaVuSans-72" x="553.076172"/>
      <use xlink:href="#DejaVuSans-73" x="594.189453"/>
     </g>
    </g>
   </g>
   <g id="matplotlib.axis_2">
    <g id="ytick_1">
     <g id="line2d_11">
      <defs>
       <path id="m7d01e521cf" d="M 0 0 
L -3.5 0 
" style="stroke: #000000; stroke-width: 0.8"/>
      </defs>
      <g>
       <use xlink:href="#m7d01e521cf" x="57.6" y="307.584" style="stroke: #000000; stroke-width: 0.8"/>
      </g>
     </g>
     <g id="text_12">
      <!-- 0 -->
      <g transform="translate(44.2375 311.383219)scale(0.1 -0.1)">
       <use xlink:href="#DejaVuSans-30"/>
      </g>
     </g>
    </g>
    <g id="ytick_2">
     <g id="line2d_12">
      <g>
       <use xlink:href="#m7d01e521cf" x="57.6" y="276.721847" style="stroke: #000000; stroke-width: 0.8"/>
      </g>
     </g>
     <g id="text_13">
      <!-- 25 -->
      <g transform="translate(37.875 280.521066)scale(0.1 -0.1)">
       <use xlink:href="#DejaVuSans-32"/>
       <use xlink:href="#DejaVuSans-35" x="63.623047"/>
      </g>
     </g>
    </g>
    <g id="ytick_3">
     <g id="line2d_13">
      <g>
       <use xlink:href="#m7d01e521cf" x="57.6" y="245.859694" style="stroke: #000000; stroke-width: 0.8"/>
      </g>
     </g>
     <g id="text_14">
      <!-- 50 -->
      <g transform="translate(37.875 249.658913)scale(0.1 -0.1)">
       <use xlink:href="#DejaVuSans-35"/>
       <use xlink:href="#DejaVuSans-30" x="63.623047"/>
      </g>
     </g>
    </g>
    <g id="ytick_4">
     <g id="line2d_14">
      <g>
       <use xlink:href="#m7d01e521cf" x="57.6" y="214.997541" style="stroke: #000000; stroke-width: 0.8"/>
      </g>
     </g>
     <g id="text_15">
      <!-- 75 -->
      <g transform="translate(37.875 218.79676)scale(0.1 -0.1)">
       <defs>
        <path id="DejaVuSans-37" d="M 525 4666 
L 3525 4666 
L 3525 4397 
L 1831 0 
L 1172 0 
L 2766 4134 
L 525 4134 
L 525 4666 
z
" transform="scale(0.015625)"/>
       </defs>
       <use xlink:href="#DejaVuSans-37"/>
       <use xlink:href="#DejaVuSans-35" x="63.623047"/>
      </g>
     </g>
    </g>
    <g id="ytick_5">
     <g id="line2d_15">
      <g>
       <use xlink:href="#m7d01e521cf" x="57.6" y="184.135388" style="stroke: #000000; stroke-width: 0.8"/>
      </g>
     </g>
     <g id="text_16">
      <!-- 100 -->
      <g transform="translate(31.5125 187.934607)scale(0.1 -0.1)">
       <use xlink:href="#DejaVuSans-31"/>
       <use xlink:href="#DejaVuSans-30" x="63.623047"/>
       <use xlink:href="#DejaVuSans-30" x="127.246094"/>
      </g>
     </g>
    </g>
    <g id="ytick_6">
     <g id="line2d_16">
      <g>
       <use xlink:href="#m7d01e521cf" x="57.6" y="153.273235" style="stroke: #000000; stroke-width: 0.8"/>
      </g>
     </g>
     <g id="text_17">
      <!-- 125 -->
      <g transform="translate(31.5125 157.072454)scale(0.1 -0.1)">
       <use xlink:href="#DejaVuSans-31"/>
       <use xlink:href="#DejaVuSans-32" x="63.623047"/>
       <use xlink:href="#DejaVuSans-35" x="127.246094"/>
      </g>
     </g>
    </g>
    <g id="ytick_7">
     <g id="line2d_17">
      <g>
       <use xlink:href="#m7d01e521cf" x="57.6" y="122.411082" style="stroke: #000000; stroke-width: 0.8"/>
      </g>
     </g>
     <g id="text_18">
      <!-- 150 -->
      <g transform="translate(31.5125 126.210301)scale(0.1 -0.1)">
       <use xlink:href="#DejaVuSans-31"/>
       <use xlink:href="#DejaVuSans-35" x="63.623047"/>
       <use xlink:href="#DejaVuSans-30" x="127.246094"/>
      </g>
     </g>
    </g>
    <g id="ytick_8">
     <g id="line2d_18">
      <g>
       <use xlink:href="#m7d01e521cf" x="57.6" y="91.548929" style="stroke: #000000; stroke-width: 0.8"/>
      </g>
     </g>
     <g id="text_19">
      <!-- 175 -->
      <g transform="translate(31.5125 95.348148)scale(0.1 -0.1)">
       <use xlink:href="#DejaVuSans-31"/>
       <use xlink:href="#DejaVuSans-37" x="63.623047"/>
       <use xlink:href="#DejaVuSans-35" x="127.246094"/>
      </g>
     </g>
    </g>
    <g id="ytick_9">
     <g id="line2d_19">
      <g>
       <use xlink:href="#m7d01e521cf" x="57.6" y="60.686776" style="stroke: #000000; stroke-width: 0.8"/>
      </g>
     </g>
     <g id="text_20">
      <!-- 200 -->
      <g transform="translate(31.5125 64.485995)scale(0.1 -0.1)">
       <use xlink:href="#DejaVuSans-32"/>
       <use xlink:href="#DejaVuSans-30" x="63.623047"/>
       <use xlink:href="#DejaVuSans-30" x="127.246094"/>
      </g>
     </g>
    </g>
    <g id="text_21">
     <!-- CPU Energy (J) -->
     <g transform="translate(25.432812 210.754562)rotate(-90)scale(0.1 -0.1)">
      <defs>
       <path id="DejaVuSans-43" d="M 4122 4306 
L 4122 3641 
Q 3803 3938 3442 4084 
Q 3081 4231 2675 4231 
Q 1875 4231 1450 3742 
Q 1025 3253 1025 2328 
Q 1025 1406 1450 917 
Q 1875 428 2675 428 
Q 3081 428 3442 575 
Q 3803 722 4122 1019 
L 4122 359 
Q 3791 134 3420 21 
Q 3050 -91 2638 -91 
Q 1578 -91 968 557 
Q 359 1206 359 2328 
Q 359 3453 968 4101 
Q 1578 4750 2638 4750 
Q 3056 4750 3426 4639 
Q 3797 4528 4122 4306 
z
" transform="scale(0.015625)"/>
       <path id="DejaVuSans-50" d="M 1259 4147 
L 1259 2394 
L 2053 2394 
Q 2494 2394 2734 2622 
Q 2975 2850 2975 3272 
Q 2975 3691 2734 3919 
Q 2494 4147 2053 4147 
L 1259 4147 
z
M 628 4666 
L 2053 4666 
Q 2838 4666 3239 4311 
Q 3641 3956 3641 3272 
Q 3641 2581 3239 2228 
Q 2838 1875 2053 1875 
L 1259 1875 
L 1259 0 
L 628 0 
L 628 4666 
z
" transform="scale(0.015625)"/>
       <path id="DejaVuSans-55" d="M 556 4666 
L 1191 4666 
L 1191 1831 
Q 1191 1081 1462 751 
Q 1734 422 2344 422 
Q 2950 422 3222 751 
Q 3494 1081 3494 1831 
L 3494 4666 
L 4128 4666 
L 4128 1753 
Q 4128 841 3676 375 
Q 3225 -91 2344 -91 
Q 1459 -91 1007 375 
Q 556 841 556 1753 
L 556 4666 
z
" transform="scale(0.015625)"/>
       <path id="DejaVuSans-20" transform="scale(0.015625)"/>
       <path id="DejaVuSans-45" d="M 628 4666 
L 3578 4666 
L 3578 4134 
L 1259 4134 
L 1259 2753 
L 3481 2753 
L 3481 2222 
L 1259 2222 
L 1259 531 
L 3634 531 
L 3634 0 
L 628 0 
L 628 4666 
z
" transform="scale(0.015625)"/>
       <path id="DejaVuSans-67" d="M 2906 1791 
Q 2906 2416 2648 2759 
Q 2391 3103 1925 3103 
Q 1463 3103 1205 2759 
Q 947 2416 947 1791 
Q 947 1169 1205 825 
Q 1463 481 1925 481 
Q 2391 481 2648 825 
Q 2906 1169 2906 1791 
z
M 3481 434 
Q 3481 -459 3084 -895 
Q 2688 -1331 1869 -1331 
Q 1566 -1331 1297 -1286 
Q 1028 -1241 775 -1147 
L 775 -588 
Q 1028 -725 1275 -790 
Q 1522 -856 1778 -856 
Q 2344 -856 2625 -561 
Q 2906 -266 2906 331 
L 2906 616 
Q 2728 306 2450 153 
Q 2172 0 1784 0 
Q 1141 0 747 490 
Q 353 981 353 1791 
Q 353 2603 747 3093 
Q 1141 3584 1784 3584 
Q 2172 3584 2450 3431 
Q 2728 3278 2906 2969 
L 2906 3500 
L 3481 3500 
L 3481 434 
z
" transform="scale(0.015625)"/>
       <path id="DejaVuSans-79" d="M 2059 -325 
Q 1816 -950 1584 -1140 
Q 1353 -1331 966 -1331 
L 506 -1331 
L 506 -850 
L 844 -850 
Q 1081 -850 1212 -737 
Q 1344 -625 1503 -206 
L 1606 56 
L 191 3500 
L 800 3500 
L 1894 763 
L 2988 3500 
L 3597 3500 
L 2059 -325 
z
" transform="scale(0.015625)"/>
       <path id="DejaVuSans-28" d="M 1984 4856 
Q 1566 4138 1362 3434 
Q 1159 2731 1159 2009 
Q 1159 1288 1364 580 
Q 1569 -128 1984 -844 
L 1484 -844 
Q 1016 -109 783 600 
Q 550 1309 550 2009 
Q 550 2706 781 3412 
Q 1013 4119 1484 4856 
L 1984 4856 
z
" transform="scale(0.015625)"/>
       <path id="DejaVuSans-4a" d="M 628 4666 
L 1259 4666 
L 1259 325 
Q 1259 -519 939 -900 
Q 619 -1281 -91 -1281 
L -331 -1281 
L -331 -750 
L -134 -750 
Q 284 -750 456 -515 
Q 628 -281 628 325 
L 628 4666 
z
" transform="scale(0.015625)"/>
       <path id="DejaVuSans-29" d="M 513 4856 
L 1013 4856 
Q 1481 4119 1714 3412 
Q 1947 2706 1947 2009 
Q 1947 1309 1714 600 
Q 1481 -109 1013 -844 
L 513 -844 
Q 928 -128 1133 580 
Q 1338 1288 1338 2009 
Q 1338 2731 1133 3434 
Q 928 4138 513 4856 
z
" transform="scale(0.015625)"/>
      </defs>
      <use xlink:href="#DejaVuSans-43"/>
      <use xlink:href="#DejaVuSans-50" x="69.824219"/>
      <use xlink:href="#DejaVuSans-55" x="130.126953"/>
      <use xlink:href="#DejaVuSans-20" x="203.320312"/>
      <use xlink:href="#DejaVuSans-45" x="235.107422"/>
      <use xlink:href="#DejaVuSans-6e" x="298.291016"/>
      <use xlink:href="#DejaVuSans-65" x="361.669922"/>
      <use xlink:href="#DejaVuSans-72" x="423.193359"/>
      <use xlink:href="#DejaVuSans-67" x="462.556641"/>
      <use xlink:href="#DejaVuSans-79" x="526.033203"/>
      <use xlink:href="#DejaVuSans-20" x="585.212891"/>
      <use xlink:href="#DejaVuSans-28" x="617"/>
      <use xlink:href="#DejaVuSans-4a" x="656.013672"/>
      <use xlink:href="#DejaVuSans-29" x="685.505859"/>
     </g>
    </g>
   </g>
   <g id="line2d_20">
    <path clip-path="url(#pe32f6e8636)" style="fill: none; stroke: #424242; stroke-width: 2.7; stroke-linecap: square"/>
   </g>
   <g id="line2d_21">
    <path clip-path="url(#pe32f6e8636)" style="fill: none; stroke: #424242; stroke-width: 2.7; stroke-linecap: square"/>
   </g>
   <g id="line2d_22">
    <path clip-path="url(#pe32f6e8636)" style="fill: none; stroke: #424242; stroke-width: 2.7; stroke-linecap: square"/>
   </g>
   <g id="line2d_23">
    <path clip-path="url(#pe32f6e8636)" style="fill: none; stroke: #424242; stroke-width: 2.7; stroke-linecap: square"/>
   </g>
   <g id="line2d_24">
    <path clip-path="url(#pe32f6e8636)" style="fill: none; stroke: #424242; stroke-width: 2.7; stroke-linecap: square"/>
   </g>
   <g id="line2d_25">
    <path clip-path="url(#pe32f6e8636)" style="fill: none; stroke: #424242; stroke-width: 2.7; stroke-linecap: square"/>
   </g>
   <g id="line2d_26">
    <path clip-path="url(#pe32f6e8636)" style="fill: none; stroke: #424242; stroke-width: 2.7; stroke-linecap: square"/>
   </g>
   <g id="line2d_27">
    <path clip-path="url(#pe32f6e8636)" style="fill: none; stroke: #424242; stroke-width: 2.7; stroke-linecap: square"/>
   </g>
   <g id="line2d_28">
    <path clip-path="url(#pe32f6e8636)" style="fill: none; stroke: #424242; stroke-width: 2.7; stroke-linecap: square"/>
   </g>
   <g id="line2d_29">
    <path clip-path="url(#pe32f6e8636)" style="fill: none; stroke: #424242; stroke-width: 2.7; stroke-linecap: square"/>
   </g>
   <g id="line2d_30">
    <path clip-path="url(#pe32f6e8636)" style="fill: none; stroke: #424242; stroke-width: 2.7; stroke-linecap: square"/>
   </g>
   <g id="line2d_31">
    <path clip-path="url(#pe32f6e8636)" style="fill: none; stroke: #424242; stroke-width: 2.7; stroke-linecap: square"/>
   </g>
   <g id="line2d_32">
    <path clip-path="url(#pe32f6e8636)" style="fill: none; stroke: #424242; stroke-width: 2.7; stroke-linecap: square"/>
   </g>
   <g id="line2d_33">
    <path clip-path="url(#pe32f6e8636)" style="fill: none; stroke: #424242; stroke-width: 2.7; stroke-linecap: square"/>
   </g>
   <g id="line2d_34">
    <path clip-path="url(#pe32f6e8636)" style="fill: none; stroke: #424242; stroke-width: 2.7; stroke-linecap: square"/>
   </g>
   <g id="line2d_35">
    <path clip-path="url(#pe32f6e8636)" style="fill: none; stroke: #424242; stroke-width: 2.7; stroke-linecap: square"/>
   </g>
   <g id="line2d_36">
    <path clip-path="url(#pe32f6e8636)" style="fill: none; stroke: #424242; stroke-width: 2.7; stroke-linecap: square"/>
   </g>
   <g id="line2d_37">
    <path clip-path="url(#pe32f6e8636)" style="fill: none; stroke: #424242; stroke-width: 2.7; stroke-linecap: square"/>
   </g>
   <g id="line2d_38">
    <path clip-path="url(#pe32f6e8636)" style="fill: none; stroke: #424242; stroke-width: 2.7; stroke-linecap: square"/>
   </g>
   <g id="line2d_39">
    <path clip-path="url(#pe32f6e8636)" style="fill: none; stroke: #424242; stroke-width: 2.7; stroke-linecap: square"/>
   </g>
   <g id="line2d_40">
    <path clip-path="url(#pe32f6e8636)" style="fill: none; stroke: #424242; stroke-width: 2.7; stroke-linecap: square"/>
   </g>
   <g id="line2d_41">
    <path clip-path="url(#pe32f6e8636)" style="fill: none; stroke: #424242; stroke-width: 2.7; stroke-linecap: square"/>
   </g>
   <g id="line2d_42">
    <path clip-path="url(#pe32f6e8636)" style="fill: none; stroke: #424242; stroke-width: 2.7; stroke-linecap: square"/>
   </g>
   <g id="line2d_43">
    <path clip-path="url(#pe32f6e8636)" style="fill: none; stroke: #424242; stroke-width: 2.7; stroke-linecap: square"/>
   </g>
   <g id="line2d_44">
    <path clip-path="url(#pe32f6e8636)" style="fill: none; stroke: #424242; stroke-width: 2.7; stroke-linecap: square"/>
   </g>
   <g id="line2d_45">
    <path clip-path="url(#pe32f6e8636)" style="fill: none; stroke: #424242; stroke-width: 2.7; stroke-linecap: square"/>
   </g>
   <g id="line2d_46">
    <path clip-path="url(#pe32f6e8636)" style="fill: none; stroke: #424242; stroke-width: 2.7; stroke-linecap: square"/>
   </g>
   <g id="line2d_47">
    <path clip-path="url(#pe32f6e8636)" style="fill: none; stroke: #424242; stroke-width: 2.7; stroke-linecap: square"/>
   </g>
   <g id="line2d_48">
    <path clip-path="url(#pe32f6e8636)" style="fill: none; stroke: #424242; stroke-width: 2.7; stroke-linecap: square"/>
   </g>
   <g id="line2d_49">
    <path clip-path="url(#pe32f6e8636)" style="fill: none; stroke: #424242; stroke-width: 2.7; stroke-linecap: square"/>
   </g>
   <g id="line2d_50">
    <path clip-path="url(#pe32f6e8636)" style="fill: none; stroke: #424242; stroke-width: 2.7; stroke-linecap: square"/>
   </g>
   <g id="line2d_51">
    <path clip-path="url(#pe32f6e8636)" style="fill: none; stroke: #424242; stroke-width: 2.7; stroke-linecap: square"/>
   </g>
   <g id="line2d_52">
    <path clip-path="url(#pe32f6e8636)" style="fill: none; stroke: #424242; stroke-width: 2.7; stroke-linecap: square"/>
   </g>
   <g id="line2d_53">
    <path clip-path="url(#pe32f6e8636)" style="fill: none; stroke: #424242; stroke-width: 2.7; stroke-linecap: square"/>
   </g>
   <g id="line2d_54">
    <path clip-path="url(#pe32f6e8636)" style="fill: none; stroke: #424242; stroke-width: 2.7; stroke-linecap: square"/>
   </g>
   <g id="line2d_55">
    <path clip-path="url(#pe32f6e8636)" style="fill: none; stroke: #424242; stroke-width: 2.7; stroke-linecap: square"/>
   </g>
   <g id="line2d_56">
    <path clip-path="url(#pe32f6e8636)" style="fill: none; stroke: #424242; stroke-width: 2.7; stroke-linecap: square"/>
   </g>
   <g id="line2d_57">
    <path clip-path="url(#pe32f6e8636)" style="fill: none; stroke: #424242; stroke-width: 2.7; stroke-linecap: square"/>
   </g>
   <g id="line2d_58">
    <path clip-path="url(#pe32f6e8636)" style="fill: none; stroke: #424242; stroke-width: 2.7; stroke-linecap: square"/>
   </g>
   <g id="line2d_59">
    <path clip-path="url(#pe32f6e8636)" style="fill: none; stroke: #424242; stroke-width: 2.7; stroke-linecap: square"/>
   </g>
   <g id="line2d_60">
    <path clip-path="url(#pe32f6e8636)" style="fill: none; stroke: #424242; stroke-width: 2.7; stroke-linecap: square"/>
   </g>
   <g id="line2d_61">
    <path clip-path="url(#pe32f6e8636)" style="fill: none; stroke: #424242; stroke-width: 2.7; stroke-linecap: square"/>
   </g>
   <g id="line2d_62">
    <path clip-path="url(#pe32f6e8636)" style="fill: none; stroke: #424242; stroke-width: 2.7; stroke-linecap: square"/>
   </g>
   <g id="line2d_63">
    <path clip-path="url(#pe32f6e8636)" style="fill: none; stroke: #424242; stroke-width: 2.7; stroke-linecap: square"/>
   </g>
   <g id="line2d_64">
    <path clip-path="url(#pe32f6e8636)" style="fill: none; stroke: #424242; stroke-width: 2.7; stroke-linecap: square"/>
   </g>
   <g id="line2d_65">
    <path clip-path="url(#pe32f6e8636)" style="fill: none; stroke: #424242; stroke-width: 2.7; stroke-linecap: square"/>
   </g>
   <g id="line2d_66">
    <path clip-path="url(#pe32f6e8636)" style="fill: none; stroke: #424242; stroke-width: 2.7; stroke-linecap: square"/>
   </g>
   <g id="line2d_67">
    <path clip-path="url(#pe32f6e8636)" style="fill: none; stroke: #424242; stroke-width: 2.7; stroke-linecap: square"/>
   </g>
   <g id="line2d_68">
    <path clip-path="url(#pe32f6e8636)" style="fill: none; stroke: #424242; stroke-width: 2.7; stroke-linecap: square"/>
   </g>
   <g id="line2d_69">
    <path clip-path="url(#pe32f6e8636)" style="fill: none; stroke: #424242; stroke-width: 2.7; stroke-linecap: square"/>
   </g>
   <g id="patch_53">
    <path d="M 57.6 307.584 
L 57.6 41.472 
" style="fill: none; stroke: #000000; stroke-width: 0.8; stroke-linejoin: miter; stroke-linecap: square"/>
   </g>
   <g id="patch_54">
    <path d="M 414.72 307.584 
L 414.72 41.472 
" style="fill: none; stroke: #000000; stroke-width: 0.8; stroke-linejoin: miter; stroke-linecap: square"/>
   </g>
   <g id="patch_55">
    <path d="M 57.6 307.584 
L 414.72 307.584 
" style="fill: none; stroke: #000000; stroke-width: 0.8; stroke-linejoin: miter; stroke-linecap: square"/>
   </g>
   <g id="patch_56">
    <path d="M 57.6 41.472 
L 414.72 41.472 
" style="fill: none; stroke: #000000; stroke-width: 0.8; stroke-linejoin: miter; stroke-linecap: square"/>
   </g>
   <g id="legend_1">
    <g id="patch_57">
     <path d="M 64.6 137.54075 
L 271.28125 137.54075 
Q 273.28125 137.54075 273.28125 135.54075 
L 273.28125 48.472 
Q 273.28125 46.472 271.28125 46.472 
L 64.6 46.472 
Q 62.6 46.472 62.6 48.472 
L 62.6 135.54075 
Q 62.6 137.54075 64.6 137.54075 
z
" style="fill: #ffffff; opacity: 0.8; stroke: #cccccc; stroke-linejoin: miter"/>
    </g>
    <g id="text_22">
     <!-- Algo Name -->
     <g transform="translate(140.557031 58.070438)scale(0.1 -0.1)">
      <defs>
       <path id="DejaVuSans-41" d="M 2188 4044 
L 1331 1722 
L 3047 1722 
L 2188 4044 
z
M 1831 4666 
L 2547 4666 
L 4325 0 
L 3669 0 
L 3244 1197 
L 1141 1197 
L 716 0 
L 50 0 
L 1831 4666 
z
" transform="scale(0.015625)"/>
       <path id="DejaVuSans-6c" d="M 603 4863 
L 1178 4863 
L 1178 0 
L 603 0 
L 603 4863 
z
" transform="scale(0.015625)"/>
       <path id="DejaVuSans-4e" d="M 628 4666 
L 1478 4666 
L 3547 763 
L 3547 4666 
L 4159 4666 
L 4159 0 
L 3309 0 
L 1241 3903 
L 1241 0 
L 628 0 
L 628 4666 
z
" transform="scale(0.015625)"/>
      </defs>
      <use xlink:href="#DejaVuSans-41"/>
      <use xlink:href="#DejaVuSans-6c" x="68.408203"/>
      <use xlink:href="#DejaVuSans-67" x="96.191406"/>
      <use xlink:href="#DejaVuSans-6f" x="159.667969"/>
      <use xlink:href="#DejaVuSans-20" x="220.849609"/>
      <use xlink:href="#DejaVuSans-4e" x="252.636719"/>
      <use xlink:href="#DejaVuSans-61" x="327.441406"/>
      <use xlink:href="#DejaVuSans-6d" x="388.720703"/>
      <use xlink:href="#DejaVuSans-65" x="486.132812"/>
     </g>
    </g>
    <g id="patch_58">
     <path d="M 66.6 72.748563 
L 86.6 72.748563 
L 86.6 65.748563 
L 66.6 65.748563 
z
" style="fill: #3274a1"/>
    </g>
    <g id="text_23">
     <!-- Grey Wolf Optimizer -->
     <g transform="translate(94.6 72.748563)scale(0.1 -0.1)">
      <defs>
       <path id="DejaVuSans-47" d="M 3809 666 
L 3809 1919 
L 2778 1919 
L 2778 2438 
L 4434 2438 
L 4434 434 
Q 4069 175 3628 42 
Q 3188 -91 2688 -91 
Q 1594 -91 976 548 
Q 359 1188 359 2328 
Q 359 3472 976 4111 
Q 1594 4750 2688 4750 
Q 3144 4750 3555 4637 
Q 3966 4525 4313 4306 
L 4313 3634 
Q 3963 3931 3569 4081 
Q 3175 4231 2741 4231 
Q 1884 4231 1454 3753 
Q 1025 3275 1025 2328 
Q 1025 1384 1454 906 
Q 1884 428 2741 428 
Q 3075 428 3337 486 
Q 3600 544 3809 666 
z
" transform="scale(0.015625)"/>
       <path id="DejaVuSans-57" d="M 213 4666 
L 850 4666 
L 1831 722 
L 2809 4666 
L 3519 4666 
L 4500 722 
L 5478 4666 
L 6119 4666 
L 4947 0 
L 4153 0 
L 3169 4050 
L 2175 0 
L 1381 0 
L 213 4666 
z
" transform="scale(0.015625)"/>
       <path id="DejaVuSans-66" d="M 2375 4863 
L 2375 4384 
L 1825 4384 
Q 1516 4384 1395 4259 
Q 1275 4134 1275 3809 
L 1275 3500 
L 2222 3500 
L 2222 3053 
L 1275 3053 
L 1275 0 
L 697 0 
L 697 3053 
L 147 3053 
L 147 3500 
L 697 3500 
L 697 3744 
Q 697 4328 969 4595 
Q 1241 4863 1831 4863 
L 2375 4863 
z
" transform="scale(0.015625)"/>
       <path id="DejaVuSans-4f" d="M 2522 4238 
Q 1834 4238 1429 3725 
Q 1025 3213 1025 2328 
Q 1025 1447 1429 934 
Q 1834 422 2522 422 
Q 3209 422 3611 934 
Q 4013 1447 4013 2328 
Q 4013 3213 3611 3725 
Q 3209 4238 2522 4238 
z
M 2522 4750 
Q 3503 4750 4090 4092 
Q 4678 3434 4678 2328 
Q 4678 1225 4090 567 
Q 3503 -91 2522 -91 
Q 1538 -91 948 565 
Q 359 1222 359 2328 
Q 359 3434 948 4092 
Q 1538 4750 2522 4750 
z
" transform="scale(0.015625)"/>
       <path id="DejaVuSans-70" d="M 1159 525 
L 1159 -1331 
L 581 -1331 
L 581 3500 
L 1159 3500 
L 1159 2969 
Q 1341 3281 1617 3432 
Q 1894 3584 2278 3584 
Q 2916 3584 3314 3078 
Q 3713 2572 3713 1747 
Q 3713 922 3314 415 
Q 2916 -91 2278 -91 
Q 1894 -91 1617 61 
Q 1341 213 1159 525 
z
M 3116 1747 
Q 3116 2381 2855 2742 
Q 2594 3103 2138 3103 
Q 1681 3103 1420 2742 
Q 1159 2381 1159 1747 
Q 1159 1113 1420 752 
Q 1681 391 2138 391 
Q 2594 391 2855 752 
Q 3116 1113 3116 1747 
z
" transform="scale(0.015625)"/>
       <path id="DejaVuSans-7a" d="M 353 3500 
L 3084 3500 
L 3084 2975 
L 922 459 
L 3084 459 
L 3084 0 
L 275 0 
L 275 525 
L 2438 3041 
L 353 3041 
L 353 3500 
z
" transform="scale(0.015625)"/>
      </defs>
      <use xlink:href="#DejaVuSans-47"/>
      <use xlink:href="#DejaVuSans-72" x="77.490234"/>
      <use xlink:href="#DejaVuSans-65" x="116.353516"/>
      <use xlink:href="#DejaVuSans-79" x="177.876953"/>
      <use xlink:href="#DejaVuSans-20" x="237.056641"/>
      <use xlink:href="#DejaVuSans-57" x="268.84375"/>
      <use xlink:href="#DejaVuSans-6f" x="361.845703"/>
      <use xlink:href="#DejaVuSans-6c" x="423.027344"/>
      <use xlink:href="#DejaVuSans-66" x="450.810547"/>
      <use xlink:href="#DejaVuSans-20" x="486.015625"/>
      <use xlink:href="#DejaVuSans-4f" x="517.802734"/>
      <use xlink:href="#DejaVuSans-70" x="596.513672"/>
      <use xlink:href="#DejaVuSans-74" x="659.990234"/>
      <use xlink:href="#DejaVuSans-69" x="699.199219"/>
      <use xlink:href="#DejaVuSans-6d" x="726.982422"/>
      <use xlink:href="#DejaVuSans-69" x="824.394531"/>
      <use xlink:href="#DejaVuSans-7a" x="852.177734"/>
      <use xlink:href="#DejaVuSans-65" x="904.667969"/>
      <use xlink:href="#DejaVuSans-72" x="966.191406"/>
     </g>
    </g>
    <g id="patch_59">
     <path d="M 66.6 87.426688 
L 86.6 87.426688 
L 86.6 80.426688 
L 66.6 80.426688 
z
" style="fill: #e1812c"/>
    </g>
    <g id="text_24">
     <!-- Bat Algorithm -->
     <g transform="translate(94.6 87.426688)scale(0.1 -0.1)">
      <defs>
       <path id="DejaVuSans-42" d="M 1259 2228 
L 1259 519 
L 2272 519 
Q 2781 519 3026 730 
Q 3272 941 3272 1375 
Q 3272 1813 3026 2020 
Q 2781 2228 2272 2228 
L 1259 2228 
z
M 1259 4147 
L 1259 2741 
L 2194 2741 
Q 2656 2741 2882 2914 
Q 3109 3088 3109 3444 
Q 3109 3797 2882 3972 
Q 2656 4147 2194 4147 
L 1259 4147 
z
M 628 4666 
L 2241 4666 
Q 2963 4666 3353 4366 
Q 3744 4066 3744 3513 
Q 3744 3084 3544 2831 
Q 3344 2578 2956 2516 
Q 3422 2416 3680 2098 
Q 3938 1781 3938 1306 
Q 3938 681 3513 340 
Q 3088 0 2303 0 
L 628 0 
L 628 4666 
z
" transform="scale(0.015625)"/>
       <path id="DejaVuSans-68" d="M 3513 2113 
L 3513 0 
L 2938 0 
L 2938 2094 
Q 2938 2591 2744 2837 
Q 2550 3084 2163 3084 
Q 1697 3084 1428 2787 
Q 1159 2491 1159 1978 
L 1159 0 
L 581 0 
L 581 4863 
L 1159 4863 
L 1159 2956 
Q 1366 3272 1645 3428 
Q 1925 3584 2291 3584 
Q 2894 3584 3203 3211 
Q 3513 2838 3513 2113 
z
" transform="scale(0.015625)"/>
      </defs>
      <use xlink:href="#DejaVuSans-42"/>
      <use xlink:href="#DejaVuSans-61" x="68.603516"/>
      <use xlink:href="#DejaVuSans-74" x="129.882812"/>
      <use xlink:href="#DejaVuSans-20" x="169.091797"/>
      <use xlink:href="#DejaVuSans-41" x="200.878906"/>
      <use xlink:href="#DejaVuSans-6c" x="269.287109"/>
      <use xlink:href="#DejaVuSans-67" x="297.070312"/>
      <use xlink:href="#DejaVuSans-6f" x="360.546875"/>
      <use xlink:href="#DejaVuSans-72" x="421.728516"/>
      <use xlink:href="#DejaVuSans-69" x="462.841797"/>
      <use xlink:href="#DejaVuSans-74" x="490.625"/>
      <use xlink:href="#DejaVuSans-68" x="529.833984"/>
      <use xlink:href="#DejaVuSans-6d" x="593.212891"/>
     </g>
    </g>
    <g id="patch_60">
     <path d="M 66.6 102.104813 
L 86.6 102.104813 
L 86.6 95.104813 
L 66.6 95.104813 
z
" style="fill: #3a923a"/>
    </g>
    <g id="text_25">
     <!-- Hybrid Bat Algorithm -->
     <g transform="translate(94.6 102.104813)scale(0.1 -0.1)">
      <defs>
       <path id="DejaVuSans-48" d="M 628 4666 
L 1259 4666 
L 1259 2753 
L 3553 2753 
L 3553 4666 
L 4184 4666 
L 4184 0 
L 3553 0 
L 3553 2222 
L 1259 2222 
L 1259 0 
L 628 0 
L 628 4666 
z
" transform="scale(0.015625)"/>
       <path id="DejaVuSans-62" d="M 3116 1747 
Q 3116 2381 2855 2742 
Q 2594 3103 2138 3103 
Q 1681 3103 1420 2742 
Q 1159 2381 1159 1747 
Q 1159 1113 1420 752 
Q 1681 391 2138 391 
Q 2594 391 2855 752 
Q 3116 1113 3116 1747 
z
M 1159 2969 
Q 1341 3281 1617 3432 
Q 1894 3584 2278 3584 
Q 2916 3584 3314 3078 
Q 3713 2572 3713 1747 
Q 3713 922 3314 415 
Q 2916 -91 2278 -91 
Q 1894 -91 1617 61 
Q 1341 213 1159 525 
L 1159 0 
L 581 0 
L 581 4863 
L 1159 4863 
L 1159 2969 
z
" transform="scale(0.015625)"/>
       <path id="DejaVuSans-64" d="M 2906 2969 
L 2906 4863 
L 3481 4863 
L 3481 0 
L 2906 0 
L 2906 525 
Q 2725 213 2448 61 
Q 2172 -91 1784 -91 
Q 1150 -91 751 415 
Q 353 922 353 1747 
Q 353 2572 751 3078 
Q 1150 3584 1784 3584 
Q 2172 3584 2448 3432 
Q 2725 3281 2906 2969 
z
M 947 1747 
Q 947 1113 1208 752 
Q 1469 391 1925 391 
Q 2381 391 2643 752 
Q 2906 1113 2906 1747 
Q 2906 2381 2643 2742 
Q 2381 3103 1925 3103 
Q 1469 3103 1208 2742 
Q 947 2381 947 1747 
z
" transform="scale(0.015625)"/>
      </defs>
      <use xlink:href="#DejaVuSans-48"/>
      <use xlink:href="#DejaVuSans-79" x="75.195312"/>
      <use xlink:href="#DejaVuSans-62" x="134.375"/>
      <use xlink:href="#DejaVuSans-72" x="197.851562"/>
      <use xlink:href="#DejaVuSans-69" x="238.964844"/>
      <use xlink:href="#DejaVuSans-64" x="266.748047"/>
      <use xlink:href="#DejaVuSans-20" x="330.224609"/>
      <use xlink:href="#DejaVuSans-42" x="362.011719"/>
      <use xlink:href="#DejaVuSans-61" x="430.615234"/>
      <use xlink:href="#DejaVuSans-74" x="491.894531"/>
      <use xlink:href="#DejaVuSans-20" x="531.103516"/>
      <use xlink:href="#DejaVuSans-41" x="562.890625"/>
      <use xlink:href="#DejaVuSans-6c" x="631.298828"/>
      <use xlink:href="#DejaVuSans-67" x="659.082031"/>
      <use xlink:href="#DejaVuSans-6f" x="722.558594"/>
      <use xlink:href="#DejaVuSans-72" x="783.740234"/>
      <use xlink:href="#DejaVuSans-69" x="824.853516"/>
      <use xlink:href="#DejaVuSans-74" x="852.636719"/>
      <use xlink:href="#DejaVuSans-68" x="891.845703"/>
      <use xlink:href="#DejaVuSans-6d" x="955.224609"/>
     </g>
    </g>
    <g id="patch_61">
     <path d="M 66.6 116.782938 
L 86.6 116.782938 
L 86.6 109.782938 
L 66.6 109.782938 
z
" style="fill: #c03d3e"/>
    </g>
    <g id="text_26">
     <!-- Firefly Algorithm -->
     <g transform="translate(94.6 116.782938)scale(0.1 -0.1)">
      <defs>
       <path id="DejaVuSans-46" d="M 628 4666 
L 3309 4666 
L 3309 4134 
L 1259 4134 
L 1259 2759 
L 3109 2759 
L 3109 2228 
L 1259 2228 
L 1259 0 
L 628 0 
L 628 4666 
z
" transform="scale(0.015625)"/>
      </defs>
      <use xlink:href="#DejaVuSans-46"/>
      <use xlink:href="#DejaVuSans-69" x="50.269531"/>
      <use xlink:href="#DejaVuSans-72" x="78.052734"/>
      <use xlink:href="#DejaVuSans-65" x="116.916016"/>
      <use xlink:href="#DejaVuSans-66" x="178.439453"/>
      <use xlink:href="#DejaVuSans-6c" x="213.644531"/>
      <use xlink:href="#DejaVuSans-79" x="241.427734"/>
      <use xlink:href="#DejaVuSans-20" x="300.607422"/>
      <use xlink:href="#DejaVuSans-41" x="332.394531"/>
      <use xlink:href="#DejaVuSans-6c" x="400.802734"/>
      <use xlink:href="#DejaVuSans-67" x="428.585938"/>
      <use xlink:href="#DejaVuSans-6f" x="492.0625"/>
      <use xlink:href="#DejaVuSans-72" x="553.244141"/>
      <use xlink:href="#DejaVuSans-69" x="594.357422"/>
      <use xlink:href="#DejaVuSans-74" x="622.140625"/>
      <use xlink:href="#DejaVuSans-68" x="661.349609"/>
      <use xlink:href="#DejaVuSans-6d" x="724.728516"/>
     </g>
    </g>
    <g id="patch_62">
     <path d="M 66.6 131.461063 
L 86.6 131.461063 
L 86.6 124.461063 
L 66.6 124.461063 
z
" style="fill: #9372b2"/>
    </g>
    <g id="text_27">
     <!-- Hybrid Self Adaptive Bat Algorithm -->
     <g transform="translate(94.6 131.461063)scale(0.1 -0.1)">
      <defs>
       <path id="DejaVuSans-53" d="M 3425 4513 
L 3425 3897 
Q 3066 4069 2747 4153 
Q 2428 4238 2131 4238 
Q 1616 4238 1336 4038 
Q 1056 3838 1056 3469 
Q 1056 3159 1242 3001 
Q 1428 2844 1947 2747 
L 2328 2669 
Q 3034 2534 3370 2195 
Q 3706 1856 3706 1288 
Q 3706 609 3251 259 
Q 2797 -91 1919 -91 
Q 1588 -91 1214 -16 
Q 841 59 441 206 
L 441 856 
Q 825 641 1194 531 
Q 1563 422 1919 422 
Q 2459 422 2753 634 
Q 3047 847 3047 1241 
Q 3047 1584 2836 1778 
Q 2625 1972 2144 2069 
L 1759 2144 
Q 1053 2284 737 2584 
Q 422 2884 422 3419 
Q 422 4038 858 4394 
Q 1294 4750 2059 4750 
Q 2388 4750 2728 4690 
Q 3069 4631 3425 4513 
z
" transform="scale(0.015625)"/>
       <path id="DejaVuSans-76" d="M 191 3500 
L 800 3500 
L 1894 563 
L 2988 3500 
L 3597 3500 
L 2284 0 
L 1503 0 
L 191 3500 
z
" transform="scale(0.015625)"/>
      </defs>
      <use xlink:href="#DejaVuSans-48"/>
      <use xlink:href="#DejaVuSans-79" x="75.195312"/>
      <use xlink:href="#DejaVuSans-62" x="134.375"/>
      <use xlink:href="#DejaVuSans-72" x="197.851562"/>
      <use xlink:href="#DejaVuSans-69" x="238.964844"/>
      <use xlink:href="#DejaVuSans-64" x="266.748047"/>
      <use xlink:href="#DejaVuSans-20" x="330.224609"/>
      <use xlink:href="#DejaVuSans-53" x="362.011719"/>
      <use xlink:href="#DejaVuSans-65" x="425.488281"/>
      <use xlink:href="#DejaVuSans-6c" x="487.011719"/>
      <use xlink:href="#DejaVuSans-66" x="514.794922"/>
      <use xlink:href="#DejaVuSans-20" x="550"/>
      <use xlink:href="#DejaVuSans-41" x="581.787109"/>
      <use xlink:href="#DejaVuSans-64" x="648.445312"/>
      <use xlink:href="#DejaVuSans-61" x="711.921875"/>
      <use xlink:href="#DejaVuSans-70" x="773.201172"/>
      <use xlink:href="#DejaVuSans-74" x="836.677734"/>
      <use xlink:href="#DejaVuSans-69" x="875.886719"/>
      <use xlink:href="#DejaVuSans-76" x="903.669922"/>
      <use xlink:href="#DejaVuSans-65" x="962.849609"/>
      <use xlink:href="#DejaVuSans-20" x="1024.373047"/>
      <use xlink:href="#DejaVuSans-42" x="1056.160156"/>
      <use xlink:href="#DejaVuSans-61" x="1124.763672"/>
      <use xlink:href="#DejaVuSans-74" x="1186.042969"/>
      <use xlink:href="#DejaVuSans-20" x="1225.251953"/>
      <use xlink:href="#DejaVuSans-41" x="1257.039062"/>
      <use xlink:href="#DejaVuSans-6c" x="1325.447266"/>
      <use xlink:href="#DejaVuSans-67" x="1353.230469"/>
      <use xlink:href="#DejaVuSans-6f" x="1416.707031"/>
      <use xlink:href="#DejaVuSans-72" x="1477.888672"/>
      <use xlink:href="#DejaVuSans-69" x="1519.001953"/>
      <use xlink:href="#DejaVuSans-74" x="1546.785156"/>
      <use xlink:href="#DejaVuSans-68" x="1585.994141"/>
      <use xlink:href="#DejaVuSans-6d" x="1649.373047"/>
     </g>
    </g>
   </g>
  </g>
 </g>
 <defs>
  <clipPath id="pe32f6e8636">
   <rect x="57.6" y="41.472" width="357.12" height="266.112"/>
  </clipPath>
 </defs>
</svg>
