<?xml version="1.0" encoding="utf-8" standalone="no"?>
<!DOCTYPE svg PUBLIC "-//W3C//DTD SVG 1.1//EN"
  "http://www.w3.org/Graphics/SVG/1.1/DTD/svg11.dtd">
<svg xmlns:xlink="http://www.w3.org/1999/xlink" width="460.8pt" height="345.6pt" viewBox="0 0 460.8 345.6" xmlns="http://www.w3.org/2000/svg" version="1.1">
 <metadata>
  <rdf:RDF xmlns:dc="http://purl.org/dc/elements/1.1/" xmlns:cc="http://creativecommons.org/ns#" xmlns:rdf="http://www.w3.org/1999/02/22-rdf-syntax-ns#">
   <cc:Work>
    <dc:type rdf:resource="http://purl.org/dc/dcmitype/StillImage"/>
    <dc:date>2022-12-05T04:00:19.004459</dc:date>
    <dc:format>image/svg+xml</dc:format>
    <dc:creator>
     <cc:Agent>
      <dc:title>Matplotlib v3.5.3, https://matplotlib.org/</dc:title>
     </cc:Agent>
    </dc:creator>
   </cc:Work>
  </rdf:RDF>
 </metadata>
 <defs>
  <style type="text/css">*{stroke-linejoin: round; stroke-linecap: butt}</style>
 </defs>
 <g id="figure_1">
  <g id="patch_1">
   <path d="M 0 345.6 
L 460.8 345.6 
L 460.8 0 
L 0 0 
z
" style="fill: #ffffff"/>
  </g>
  <g id="axes_1">
   <g id="patch_2">
    <path d="M 57.6 307.584 
L 414.72 307.584 
L 414.72 41.472 
L 57.6 41.472 
z
" style="fill: #ffffff"/>
   </g>
   <g id="matplotlib.axis_1">
    <g id="xtick_1">
     <g id="line2d_1">
      <path d="M 70.553388 307.584 
L 70.553388 41.472 
" clip-path="url(#p87c32f747b)" style="fill: none; stroke: #b0b0b0; stroke-width: 0.8; stroke-linecap: square"/>
     </g>
     <g id="line2d_2">
      <defs>
       <path id="m557a625c48" d="M 0 0 
L 0 3.5 
" style="stroke: #000000; stroke-width: 0.8"/>
      </defs>
      <g>
       <use xlink:href="#m557a625c48" x="70.553388" y="307.584" style="stroke: #000000; stroke-width: 0.8"/>
      </g>
     </g>
     <g id="text_1">
      <!-- 0 -->
      <g transform="translate(67.372138 322.182437)scale(0.1 -0.1)">
       <defs>
        <path id="DejaVuSans-30" d="M 2034 4250 
Q 1547 4250 1301 3770 
Q 1056 3291 1056 2328 
Q 1056 1369 1301 889 
Q 1547 409 2034 409 
Q 2525 409 2770 889 
Q 3016 1369 3016 2328 
Q 3016 3291 2770 3770 
Q 2525 4250 2034 4250 
z
M 2034 4750 
Q 2819 4750 3233 4129 
Q 3647 3509 3647 2328 
Q 3647 1150 3233 529 
Q 2819 -91 2034 -91 
Q 1250 -91 836 529 
Q 422 1150 422 2328 
Q 422 3509 836 4129 
Q 1250 4750 2034 4750 
z
" transform="scale(0.015625)"/>
       </defs>
       <use xlink:href="#DejaVuSans-30"/>
      </g>
     </g>
    </g>
    <g id="xtick_2">
     <g id="line2d_3">
      <path d="M 136.140165 307.584 
L 136.140165 41.472 
" clip-path="url(#p87c32f747b)" style="fill: none; stroke: #b0b0b0; stroke-width: 0.8; stroke-linecap: square"/>
     </g>
     <g id="line2d_4">
      <g>
       <use xlink:href="#m557a625c48" x="136.140165" y="307.584" style="stroke: #000000; stroke-width: 0.8"/>
      </g>
     </g>
     <g id="text_2">
      <!-- 20 -->
      <g transform="translate(129.777665 322.182437)scale(0.1 -0.1)">
       <defs>
        <path id="DejaVuSans-32" d="M 1228 531 
L 3431 531 
L 3431 0 
L 469 0 
L 469 531 
Q 828 903 1448 1529 
Q 2069 2156 2228 2338 
Q 2531 2678 2651 2914 
Q 2772 3150 2772 3378 
Q 2772 3750 2511 3984 
Q 2250 4219 1831 4219 
Q 1534 4219 1204 4116 
Q 875 4013 500 3803 
L 500 4441 
Q 881 4594 1212 4672 
Q 1544 4750 1819 4750 
Q 2544 4750 2975 4387 
Q 3406 4025 3406 3419 
Q 3406 3131 3298 2873 
Q 3191 2616 2906 2266 
Q 2828 2175 2409 1742 
Q 1991 1309 1228 531 
z
" transform="scale(0.015625)"/>
       </defs>
       <use xlink:href="#DejaVuSans-32"/>
       <use xlink:href="#DejaVuSans-30" x="63.623047"/>
      </g>
     </g>
    </g>
    <g id="xtick_3">
     <g id="line2d_5">
      <path d="M 201.726942 307.584 
L 201.726942 41.472 
" clip-path="url(#p87c32f747b)" style="fill: none; stroke: #b0b0b0; stroke-width: 0.8; stroke-linecap: square"/>
     </g>
     <g id="line2d_6">
      <g>
       <use xlink:href="#m557a625c48" x="201.726942" y="307.584" style="stroke: #000000; stroke-width: 0.8"/>
      </g>
     </g>
     <g id="text_3">
      <!-- 40 -->
      <g transform="translate(195.364442 322.182437)scale(0.1 -0.1)">
       <defs>
        <path id="DejaVuSans-34" d="M 2419 4116 
L 825 1625 
L 2419 1625 
L 2419 4116 
z
M 2253 4666 
L 3047 4666 
L 3047 1625 
L 3713 1625 
L 3713 1100 
L 3047 1100 
L 3047 0 
L 2419 0 
L 2419 1100 
L 313 1100 
L 313 1709 
L 2253 4666 
z
" transform="scale(0.015625)"/>
       </defs>
       <use xlink:href="#DejaVuSans-34"/>
       <use xlink:href="#DejaVuSans-30" x="63.623047"/>
      </g>
     </g>
    </g>
    <g id="xtick_4">
     <g id="line2d_7">
      <path d="M 267.313719 307.584 
L 267.313719 41.472 
" clip-path="url(#p87c32f747b)" style="fill: none; stroke: #b0b0b0; stroke-width: 0.8; stroke-linecap: square"/>
     </g>
     <g id="line2d_8">
      <g>
       <use xlink:href="#m557a625c48" x="267.313719" y="307.584" style="stroke: #000000; stroke-width: 0.8"/>
      </g>
     </g>
     <g id="text_4">
      <!-- 60 -->
      <g transform="translate(260.951219 322.182437)scale(0.1 -0.1)">
       <defs>
        <path id="DejaVuSans-36" d="M 2113 2584 
Q 1688 2584 1439 2293 
Q 1191 2003 1191 1497 
Q 1191 994 1439 701 
Q 1688 409 2113 409 
Q 2538 409 2786 701 
Q 3034 994 3034 1497 
Q 3034 2003 2786 2293 
Q 2538 2584 2113 2584 
z
M 3366 4563 
L 3366 3988 
Q 3128 4100 2886 4159 
Q 2644 4219 2406 4219 
Q 1781 4219 1451 3797 
Q 1122 3375 1075 2522 
Q 1259 2794 1537 2939 
Q 1816 3084 2150 3084 
Q 2853 3084 3261 2657 
Q 3669 2231 3669 1497 
Q 3669 778 3244 343 
Q 2819 -91 2113 -91 
Q 1303 -91 875 529 
Q 447 1150 447 2328 
Q 447 3434 972 4092 
Q 1497 4750 2381 4750 
Q 2619 4750 2861 4703 
Q 3103 4656 3366 4563 
z
" transform="scale(0.015625)"/>
       </defs>
       <use xlink:href="#DejaVuSans-36"/>
       <use xlink:href="#DejaVuSans-30" x="63.623047"/>
      </g>
     </g>
    </g>
    <g id="xtick_5">
     <g id="line2d_9">
      <path d="M 332.900496 307.584 
L 332.900496 41.472 
" clip-path="url(#p87c32f747b)" style="fill: none; stroke: #b0b0b0; stroke-width: 0.8; stroke-linecap: square"/>
     </g>
     <g id="line2d_10">
      <g>
       <use xlink:href="#m557a625c48" x="332.900496" y="307.584" style="stroke: #000000; stroke-width: 0.8"/>
      </g>
     </g>
     <g id="text_5">
      <!-- 80 -->
      <g transform="translate(326.537996 322.182437)scale(0.1 -0.1)">
       <defs>
        <path id="DejaVuSans-38" d="M 2034 2216 
Q 1584 2216 1326 1975 
Q 1069 1734 1069 1313 
Q 1069 891 1326 650 
Q 1584 409 2034 409 
Q 2484 409 2743 651 
Q 3003 894 3003 1313 
Q 3003 1734 2745 1975 
Q 2488 2216 2034 2216 
z
M 1403 2484 
Q 997 2584 770 2862 
Q 544 3141 544 3541 
Q 544 4100 942 4425 
Q 1341 4750 2034 4750 
Q 2731 4750 3128 4425 
Q 3525 4100 3525 3541 
Q 3525 3141 3298 2862 
Q 3072 2584 2669 2484 
Q 3125 2378 3379 2068 
Q 3634 1759 3634 1313 
Q 3634 634 3220 271 
Q 2806 -91 2034 -91 
Q 1263 -91 848 271 
Q 434 634 434 1313 
Q 434 1759 690 2068 
Q 947 2378 1403 2484 
z
M 1172 3481 
Q 1172 3119 1398 2916 
Q 1625 2713 2034 2713 
Q 2441 2713 2670 2916 
Q 2900 3119 2900 3481 
Q 2900 3844 2670 4047 
Q 2441 4250 2034 4250 
Q 1625 4250 1398 4047 
Q 1172 3844 1172 3481 
z
" transform="scale(0.015625)"/>
       </defs>
       <use xlink:href="#DejaVuSans-38"/>
       <use xlink:href="#DejaVuSans-30" x="63.623047"/>
      </g>
     </g>
    </g>
    <g id="xtick_6">
     <g id="line2d_11">
      <path d="M 398.487273 307.584 
L 398.487273 41.472 
" clip-path="url(#p87c32f747b)" style="fill: none; stroke: #b0b0b0; stroke-width: 0.8; stroke-linecap: square"/>
     </g>
     <g id="line2d_12">
      <g>
       <use xlink:href="#m557a625c48" x="398.487273" y="307.584" style="stroke: #000000; stroke-width: 0.8"/>
      </g>
     </g>
     <g id="text_6">
      <!-- 100 -->
      <g transform="translate(388.943523 322.182437)scale(0.1 -0.1)">
       <defs>
        <path id="DejaVuSans-31" d="M 794 531 
L 1825 531 
L 1825 4091 
L 703 3866 
L 703 4441 
L 1819 4666 
L 2450 4666 
L 2450 531 
L 3481 531 
L 3481 0 
L 794 0 
L 794 531 
z
" transform="scale(0.015625)"/>
       </defs>
       <use xlink:href="#DejaVuSans-31"/>
       <use xlink:href="#DejaVuSans-30" x="63.623047"/>
       <use xlink:href="#DejaVuSans-30" x="127.246094"/>
      </g>
     </g>
    </g>
    <g id="text_7">
     <!-- Iterations -->
     <g transform="translate(212.346719 335.860562)scale(0.1 -0.1)">
      <defs>
       <path id="DejaVuSans-49" d="M 628 4666 
L 1259 4666 
L 1259 0 
L 628 0 
L 628 4666 
z
" transform="scale(0.015625)"/>
       <path id="DejaVuSans-74" d="M 1172 4494 
L 1172 3500 
L 2356 3500 
L 2356 3053 
L 1172 3053 
L 1172 1153 
Q 1172 725 1289 603 
Q 1406 481 1766 481 
L 2356 481 
L 2356 0 
L 1766 0 
Q 1100 0 847 248 
Q 594 497 594 1153 
L 594 3053 
L 172 3053 
L 172 3500 
L 594 3500 
L 594 4494 
L 1172 4494 
z
" transform="scale(0.015625)"/>
       <path id="DejaVuSans-65" d="M 3597 1894 
L 3597 1613 
L 953 1613 
Q 991 1019 1311 708 
Q 1631 397 2203 397 
Q 2534 397 2845 478 
Q 3156 559 3463 722 
L 3463 178 
Q 3153 47 2828 -22 
Q 2503 -91 2169 -91 
Q 1331 -91 842 396 
Q 353 884 353 1716 
Q 353 2575 817 3079 
Q 1281 3584 2069 3584 
Q 2775 3584 3186 3129 
Q 3597 2675 3597 1894 
z
M 3022 2063 
Q 3016 2534 2758 2815 
Q 2500 3097 2075 3097 
Q 1594 3097 1305 2825 
Q 1016 2553 972 2059 
L 3022 2063 
z
" transform="scale(0.015625)"/>
       <path id="DejaVuSans-72" d="M 2631 2963 
Q 2534 3019 2420 3045 
Q 2306 3072 2169 3072 
Q 1681 3072 1420 2755 
Q 1159 2438 1159 1844 
L 1159 0 
L 581 0 
L 581 3500 
L 1159 3500 
L 1159 2956 
Q 1341 3275 1631 3429 
Q 1922 3584 2338 3584 
Q 2397 3584 2469 3576 
Q 2541 3569 2628 3553 
L 2631 2963 
z
" transform="scale(0.015625)"/>
       <path id="DejaVuSans-61" d="M 2194 1759 
Q 1497 1759 1228 1600 
Q 959 1441 959 1056 
Q 959 750 1161 570 
Q 1363 391 1709 391 
Q 2188 391 2477 730 
Q 2766 1069 2766 1631 
L 2766 1759 
L 2194 1759 
z
M 3341 1997 
L 3341 0 
L 2766 0 
L 2766 531 
Q 2569 213 2275 61 
Q 1981 -91 1556 -91 
Q 1019 -91 701 211 
Q 384 513 384 1019 
Q 384 1609 779 1909 
Q 1175 2209 1959 2209 
L 2766 2209 
L 2766 2266 
Q 2766 2663 2505 2880 
Q 2244 3097 1772 3097 
Q 1472 3097 1187 3025 
Q 903 2953 641 2809 
L 641 3341 
Q 956 3463 1253 3523 
Q 1550 3584 1831 3584 
Q 2591 3584 2966 3190 
Q 3341 2797 3341 1997 
z
" transform="scale(0.015625)"/>
       <path id="DejaVuSans-69" d="M 603 3500 
L 1178 3500 
L 1178 0 
L 603 0 
L 603 3500 
z
M 603 4863 
L 1178 4863 
L 1178 4134 
L 603 4134 
L 603 4863 
z
" transform="scale(0.015625)"/>
       <path id="DejaVuSans-6f" d="M 1959 3097 
Q 1497 3097 1228 2736 
Q 959 2375 959 1747 
Q 959 1119 1226 758 
Q 1494 397 1959 397 
Q 2419 397 2687 759 
Q 2956 1122 2956 1747 
Q 2956 2369 2687 2733 
Q 2419 3097 1959 3097 
z
M 1959 3584 
Q 2709 3584 3137 3096 
Q 3566 2609 3566 1747 
Q 3566 888 3137 398 
Q 2709 -91 1959 -91 
Q 1206 -91 779 398 
Q 353 888 353 1747 
Q 353 2609 779 3096 
Q 1206 3584 1959 3584 
z
" transform="scale(0.015625)"/>
       <path id="DejaVuSans-6e" d="M 3513 2113 
L 3513 0 
L 2938 0 
L 2938 2094 
Q 2938 2591 2744 2837 
Q 2550 3084 2163 3084 
Q 1697 3084 1428 2787 
Q 1159 2491 1159 1978 
L 1159 0 
L 581 0 
L 581 3500 
L 1159 3500 
L 1159 2956 
Q 1366 3272 1645 3428 
Q 1925 3584 2291 3584 
Q 2894 3584 3203 3211 
Q 3513 2838 3513 2113 
z
" transform="scale(0.015625)"/>
       <path id="DejaVuSans-73" d="M 2834 3397 
L 2834 2853 
Q 2591 2978 2328 3040 
Q 2066 3103 1784 3103 
Q 1356 3103 1142 2972 
Q 928 2841 928 2578 
Q 928 2378 1081 2264 
Q 1234 2150 1697 2047 
L 1894 2003 
Q 2506 1872 2764 1633 
Q 3022 1394 3022 966 
Q 3022 478 2636 193 
Q 2250 -91 1575 -91 
Q 1294 -91 989 -36 
Q 684 19 347 128 
L 347 722 
Q 666 556 975 473 
Q 1284 391 1588 391 
Q 1994 391 2212 530 
Q 2431 669 2431 922 
Q 2431 1156 2273 1281 
Q 2116 1406 1581 1522 
L 1381 1569 
Q 847 1681 609 1914 
Q 372 2147 372 2553 
Q 372 3047 722 3315 
Q 1072 3584 1716 3584 
Q 2034 3584 2315 3537 
Q 2597 3491 2834 3397 
z
" transform="scale(0.015625)"/>
      </defs>
      <use xlink:href="#DejaVuSans-49"/>
      <use xlink:href="#DejaVuSans-74" x="29.492188"/>
      <use xlink:href="#DejaVuSans-65" x="68.701172"/>
      <use xlink:href="#DejaVuSans-72" x="130.224609"/>
      <use xlink:href="#DejaVuSans-61" x="171.337891"/>
      <use xlink:href="#DejaVuSans-74" x="232.617188"/>
      <use xlink:href="#DejaVuSans-69" x="271.826172"/>
      <use xlink:href="#DejaVuSans-6f" x="299.609375"/>
      <use xlink:href="#DejaVuSans-6e" x="360.791016"/>
      <use xlink:href="#DejaVuSans-73" x="424.169922"/>
     </g>
    </g>
   </g>
   <g id="matplotlib.axis_2">
    <g id="ytick_1">
     <g id="line2d_13">
      <path d="M 57.6 273.495273 
L 414.72 273.495273 
" clip-path="url(#p87c32f747b)" style="fill: none; stroke: #b0b0b0; stroke-width: 0.8; stroke-linecap: square"/>
     </g>
     <g id="line2d_14">
      <defs>
       <path id="m6f49c79826" d="M 0 0 
L -3.5 0 
" style="stroke: #000000; stroke-width: 0.8"/>
      </defs>
      <g>
       <use xlink:href="#m6f49c79826" x="57.6" y="273.495273" style="stroke: #000000; stroke-width: 0.8"/>
      </g>
     </g>
     <g id="text_8">
      <!-- 0.895 -->
      <g transform="translate(21.971875 277.294491)scale(0.1 -0.1)">
       <defs>
        <path id="DejaVuSans-2e" d="M 684 794 
L 1344 794 
L 1344 0 
L 684 0 
L 684 794 
z
" transform="scale(0.015625)"/>
        <path id="DejaVuSans-39" d="M 703 97 
L 703 672 
Q 941 559 1184 500 
Q 1428 441 1663 441 
Q 2288 441 2617 861 
Q 2947 1281 2994 2138 
Q 2813 1869 2534 1725 
Q 2256 1581 1919 1581 
Q 1219 1581 811 2004 
Q 403 2428 403 3163 
Q 403 3881 828 4315 
Q 1253 4750 1959 4750 
Q 2769 4750 3195 4129 
Q 3622 3509 3622 2328 
Q 3622 1225 3098 567 
Q 2575 -91 1691 -91 
Q 1453 -91 1209 -44 
Q 966 3 703 97 
z
M 1959 2075 
Q 2384 2075 2632 2365 
Q 2881 2656 2881 3163 
Q 2881 3666 2632 3958 
Q 2384 4250 1959 4250 
Q 1534 4250 1286 3958 
Q 1038 3666 1038 3163 
Q 1038 2656 1286 2365 
Q 1534 2075 1959 2075 
z
" transform="scale(0.015625)"/>
        <path id="DejaVuSans-35" d="M 691 4666 
L 3169 4666 
L 3169 4134 
L 1269 4134 
L 1269 2991 
Q 1406 3038 1543 3061 
Q 1681 3084 1819 3084 
Q 2600 3084 3056 2656 
Q 3513 2228 3513 1497 
Q 3513 744 3044 326 
Q 2575 -91 1722 -91 
Q 1428 -91 1123 -41 
Q 819 9 494 109 
L 494 744 
Q 775 591 1075 516 
Q 1375 441 1709 441 
Q 2250 441 2565 725 
Q 2881 1009 2881 1497 
Q 2881 1984 2565 2268 
Q 2250 2553 1709 2553 
Q 1456 2553 1204 2497 
Q 953 2441 691 2322 
L 691 4666 
z
" transform="scale(0.015625)"/>
       </defs>
       <use xlink:href="#DejaVuSans-30"/>
       <use xlink:href="#DejaVuSans-2e" x="63.623047"/>
       <use xlink:href="#DejaVuSans-38" x="95.410156"/>
       <use xlink:href="#DejaVuSans-39" x="159.033203"/>
       <use xlink:href="#DejaVuSans-35" x="222.65625"/>
      </g>
     </g>
    </g>
    <g id="ytick_2">
     <g id="line2d_15">
      <path d="M 57.6 229.509818 
L 414.72 229.509818 
" clip-path="url(#p87c32f747b)" style="fill: none; stroke: #b0b0b0; stroke-width: 0.8; stroke-linecap: square"/>
     </g>
     <g id="line2d_16">
      <g>
       <use xlink:href="#m6f49c79826" x="57.6" y="229.509818" style="stroke: #000000; stroke-width: 0.8"/>
      </g>
     </g>
     <g id="text_9">
      <!-- 0.896 -->
      <g transform="translate(21.971875 233.309037)scale(0.1 -0.1)">
       <use xlink:href="#DejaVuSans-30"/>
       <use xlink:href="#DejaVuSans-2e" x="63.623047"/>
       <use xlink:href="#DejaVuSans-38" x="95.410156"/>
       <use xlink:href="#DejaVuSans-39" x="159.033203"/>
       <use xlink:href="#DejaVuSans-36" x="222.65625"/>
      </g>
     </g>
    </g>
    <g id="ytick_3">
     <g id="line2d_17">
      <path d="M 57.6 185.524364 
L 414.72 185.524364 
" clip-path="url(#p87c32f747b)" style="fill: none; stroke: #b0b0b0; stroke-width: 0.8; stroke-linecap: square"/>
     </g>
     <g id="line2d_18">
      <g>
       <use xlink:href="#m6f49c79826" x="57.6" y="185.524364" style="stroke: #000000; stroke-width: 0.8"/>
      </g>
     </g>
     <g id="text_10">
      <!-- 0.897 -->
      <g transform="translate(21.971875 189.323582)scale(0.1 -0.1)">
       <defs>
        <path id="DejaVuSans-37" d="M 525 4666 
L 3525 4666 
L 3525 4397 
L 1831 0 
L 1172 0 
L 2766 4134 
L 525 4134 
L 525 4666 
z
" transform="scale(0.015625)"/>
       </defs>
       <use xlink:href="#DejaVuSans-30"/>
       <use xlink:href="#DejaVuSans-2e" x="63.623047"/>
       <use xlink:href="#DejaVuSans-38" x="95.410156"/>
       <use xlink:href="#DejaVuSans-39" x="159.033203"/>
       <use xlink:href="#DejaVuSans-37" x="222.65625"/>
      </g>
     </g>
    </g>
    <g id="ytick_4">
     <g id="line2d_19">
      <path d="M 57.6 141.538909 
L 414.72 141.538909 
" clip-path="url(#p87c32f747b)" style="fill: none; stroke: #b0b0b0; stroke-width: 0.8; stroke-linecap: square"/>
     </g>
     <g id="line2d_20">
      <g>
       <use xlink:href="#m6f49c79826" x="57.6" y="141.538909" style="stroke: #000000; stroke-width: 0.8"/>
      </g>
     </g>
     <g id="text_11">
      <!-- 0.898 -->
      <g transform="translate(21.971875 145.338128)scale(0.1 -0.1)">
       <use xlink:href="#DejaVuSans-30"/>
       <use xlink:href="#DejaVuSans-2e" x="63.623047"/>
       <use xlink:href="#DejaVuSans-38" x="95.410156"/>
       <use xlink:href="#DejaVuSans-39" x="159.033203"/>
       <use xlink:href="#DejaVuSans-38" x="222.65625"/>
      </g>
     </g>
    </g>
    <g id="ytick_5">
     <g id="line2d_21">
      <path d="M 57.6 97.553455 
L 414.72 97.553455 
" clip-path="url(#p87c32f747b)" style="fill: none; stroke: #b0b0b0; stroke-width: 0.8; stroke-linecap: square"/>
     </g>
     <g id="line2d_22">
      <g>
       <use xlink:href="#m6f49c79826" x="57.6" y="97.553455" style="stroke: #000000; stroke-width: 0.8"/>
      </g>
     </g>
     <g id="text_12">
      <!-- 0.899 -->
      <g transform="translate(21.971875 101.352673)scale(0.1 -0.1)">
       <use xlink:href="#DejaVuSans-30"/>
       <use xlink:href="#DejaVuSans-2e" x="63.623047"/>
       <use xlink:href="#DejaVuSans-38" x="95.410156"/>
       <use xlink:href="#DejaVuSans-39" x="159.033203"/>
       <use xlink:href="#DejaVuSans-39" x="222.65625"/>
      </g>
     </g>
    </g>
    <g id="ytick_6">
     <g id="line2d_23">
      <path d="M 57.6 53.568 
L 414.72 53.568 
" clip-path="url(#p87c32f747b)" style="fill: none; stroke: #b0b0b0; stroke-width: 0.8; stroke-linecap: square"/>
     </g>
     <g id="line2d_24">
      <g>
       <use xlink:href="#m6f49c79826" x="57.6" y="53.568" style="stroke: #000000; stroke-width: 0.8"/>
      </g>
     </g>
     <g id="text_13">
      <!-- 0.900 -->
      <g transform="translate(21.971875 57.367219)scale(0.1 -0.1)">
       <use xlink:href="#DejaVuSans-30"/>
       <use xlink:href="#DejaVuSans-2e" x="63.623047"/>
       <use xlink:href="#DejaVuSans-39" x="95.410156"/>
       <use xlink:href="#DejaVuSans-30" x="159.033203"/>
       <use xlink:href="#DejaVuSans-30" x="222.65625"/>
      </g>
     </g>
    </g>
    <g id="text_14">
     <!-- Accuracy -->
     <g transform="translate(15.892187 197.356125)rotate(-90)scale(0.1 -0.1)">
      <defs>
       <path id="DejaVuSans-41" d="M 2188 4044 
L 1331 1722 
L 3047 1722 
L 2188 4044 
z
M 1831 4666 
L 2547 4666 
L 4325 0 
L 3669 0 
L 3244 1197 
L 1141 1197 
L 716 0 
L 50 0 
L 1831 4666 
z
" transform="scale(0.015625)"/>
       <path id="DejaVuSans-63" d="M 3122 3366 
L 3122 2828 
Q 2878 2963 2633 3030 
Q 2388 3097 2138 3097 
Q 1578 3097 1268 2742 
Q 959 2388 959 1747 
Q 959 1106 1268 751 
Q 1578 397 2138 397 
Q 2388 397 2633 464 
Q 2878 531 3122 666 
L 3122 134 
Q 2881 22 2623 -34 
Q 2366 -91 2075 -91 
Q 1284 -91 818 406 
Q 353 903 353 1747 
Q 353 2603 823 3093 
Q 1294 3584 2113 3584 
Q 2378 3584 2631 3529 
Q 2884 3475 3122 3366 
z
" transform="scale(0.015625)"/>
       <path id="DejaVuSans-75" d="M 544 1381 
L 544 3500 
L 1119 3500 
L 1119 1403 
Q 1119 906 1312 657 
Q 1506 409 1894 409 
Q 2359 409 2629 706 
Q 2900 1003 2900 1516 
L 2900 3500 
L 3475 3500 
L 3475 0 
L 2900 0 
L 2900 538 
Q 2691 219 2414 64 
Q 2138 -91 1772 -91 
Q 1169 -91 856 284 
Q 544 659 544 1381 
z
M 1991 3584 
L 1991 3584 
z
" transform="scale(0.015625)"/>
       <path id="DejaVuSans-79" d="M 2059 -325 
Q 1816 -950 1584 -1140 
Q 1353 -1331 966 -1331 
L 506 -1331 
L 506 -850 
L 844 -850 
Q 1081 -850 1212 -737 
Q 1344 -625 1503 -206 
L 1606 56 
L 191 3500 
L 800 3500 
L 1894 763 
L 2988 3500 
L 3597 3500 
L 2059 -325 
z
" transform="scale(0.015625)"/>
      </defs>
      <use xlink:href="#DejaVuSans-41"/>
      <use xlink:href="#DejaVuSans-63" x="66.658203"/>
      <use xlink:href="#DejaVuSans-63" x="121.638672"/>
      <use xlink:href="#DejaVuSans-75" x="176.619141"/>
      <use xlink:href="#DejaVuSans-72" x="239.998047"/>
      <use xlink:href="#DejaVuSans-61" x="281.111328"/>
      <use xlink:href="#DejaVuSans-63" x="342.390625"/>
      <use xlink:href="#DejaVuSans-79" x="397.371094"/>
     </g>
    </g>
   </g>
   <g id="line2d_25">
    <path d="M 73.832727 185.524364 
L 77.112066 119.546182 
L 80.391405 207.517091 
L 83.670744 141.538909 
L 86.950083 229.509818 
L 90.229421 119.546182 
L 93.50876 207.517091 
L 96.788099 229.509818 
L 100.067438 141.538909 
L 103.346777 75.560727 
L 106.626116 185.524364 
L 109.905455 185.524364 
L 113.184793 163.531636 
L 116.464132 207.517091 
L 119.743471 207.517091 
L 123.02281 185.524364 
L 126.302149 163.531636 
L 129.581488 229.509818 
L 132.860826 163.531636 
L 136.140165 141.538909 
L 139.419504 163.531636 
L 142.698843 207.517091 
L 145.978182 229.509818 
L 149.257521 295.488 
L 152.53686 163.531636 
L 155.816198 251.502545 
L 159.095537 273.495273 
L 162.374876 229.509818 
L 165.654215 185.524364 
L 168.933554 185.524364 
L 172.212893 207.517091 
L 175.492231 185.524364 
L 178.77157 163.531636 
L 182.050909 207.517091 
L 185.330248 141.538909 
L 188.609587 163.531636 
L 191.888926 119.546182 
L 195.168264 163.531636 
L 198.447603 97.553455 
L 201.726942 163.531636 
L 205.006281 229.509818 
L 208.28562 229.509818 
L 211.564959 207.517091 
L 214.844298 141.538909 
L 218.123636 185.524364 
L 221.402975 295.488 
L 224.682314 163.531636 
L 227.961653 119.546182 
L 231.240992 163.531636 
L 234.520331 141.538909 
L 237.799669 163.531636 
L 241.079008 251.502545 
L 244.358347 163.531636 
L 247.637686 141.538909 
L 250.917025 273.495273 
L 254.196364 207.517091 
L 257.475702 273.495273 
L 260.755041 119.546182 
L 264.03438 75.560727 
L 267.313719 185.524364 
L 270.593058 163.531636 
L 273.872397 141.538909 
L 277.151736 185.524364 
L 280.431074 141.538909 
L 283.710413 251.502545 
L 286.989752 97.553455 
L 290.269091 229.509818 
L 293.54843 119.546182 
L 296.827769 207.517091 
L 300.107107 207.517091 
L 303.386446 163.531636 
L 306.665785 229.509818 
L 309.945124 75.560727 
L 313.224463 229.509818 
L 316.503802 185.524364 
L 319.78314 141.538909 
L 323.062479 207.517091 
L 326.341818 97.553455 
L 329.621157 229.509818 
L 332.900496 119.546182 
L 336.179835 163.531636 
L 339.459174 273.495273 
L 342.738512 185.524364 
L 346.017851 185.524364 
L 349.29719 163.531636 
L 352.576529 229.509818 
L 355.855868 207.517091 
L 359.135207 273.495273 
L 362.414545 163.531636 
L 365.693884 163.531636 
L 368.973223 141.538909 
L 372.252562 207.517091 
L 375.531901 163.531636 
L 378.81124 119.546182 
L 382.090579 141.538909 
L 385.369917 163.531636 
L 388.649256 185.524364 
L 391.928595 119.546182 
L 395.207934 53.568 
L 398.487273 163.531636 
" clip-path="url(#p87c32f747b)" style="fill: none; stroke: #1f77b4; stroke-width: 1.5; stroke-linecap: square"/>
    <defs>
     <path id="mbf43bfc145" d="M 0 3 
C 0.795609 3 1.55874 2.683901 2.12132 2.12132 
C 2.683901 1.55874 3 0.795609 3 0 
C 3 -0.795609 2.683901 -1.55874 2.12132 -2.12132 
C 1.55874 -2.683901 0.795609 -3 0 -3 
C -0.795609 -3 -1.55874 -2.683901 -2.12132 -2.12132 
C -2.683901 -1.55874 -3 -0.795609 -3 0 
C -3 0.795609 -2.683901 1.55874 -2.12132 2.12132 
C -1.55874 2.683901 -0.795609 3 0 3 
z
" style="stroke: #1f77b4"/>
    </defs>
    <g clip-path="url(#p87c32f747b)">
     <use xlink:href="#mbf43bfc145" x="73.832727" y="185.524364" style="fill: #1f77b4; stroke: #1f77b4"/>
     <use xlink:href="#mbf43bfc145" x="77.112066" y="119.546182" style="fill: #1f77b4; stroke: #1f77b4"/>
     <use xlink:href="#mbf43bfc145" x="80.391405" y="207.517091" style="fill: #1f77b4; stroke: #1f77b4"/>
     <use xlink:href="#mbf43bfc145" x="83.670744" y="141.538909" style="fill: #1f77b4; stroke: #1f77b4"/>
     <use xlink:href="#mbf43bfc145" x="86.950083" y="229.509818" style="fill: #1f77b4; stroke: #1f77b4"/>
     <use xlink:href="#mbf43bfc145" x="90.229421" y="119.546182" style="fill: #1f77b4; stroke: #1f77b4"/>
     <use xlink:href="#mbf43bfc145" x="93.50876" y="207.517091" style="fill: #1f77b4; stroke: #1f77b4"/>
     <use xlink:href="#mbf43bfc145" x="96.788099" y="229.509818" style="fill: #1f77b4; stroke: #1f77b4"/>
     <use xlink:href="#mbf43bfc145" x="100.067438" y="141.538909" style="fill: #1f77b4; stroke: #1f77b4"/>
     <use xlink:href="#mbf43bfc145" x="103.346777" y="75.560727" style="fill: #1f77b4; stroke: #1f77b4"/>
     <use xlink:href="#mbf43bfc145" x="106.626116" y="185.524364" style="fill: #1f77b4; stroke: #1f77b4"/>
     <use xlink:href="#mbf43bfc145" x="109.905455" y="185.524364" style="fill: #1f77b4; stroke: #1f77b4"/>
     <use xlink:href="#mbf43bfc145" x="113.184793" y="163.531636" style="fill: #1f77b4; stroke: #1f77b4"/>
     <use xlink:href="#mbf43bfc145" x="116.464132" y="207.517091" style="fill: #1f77b4; stroke: #1f77b4"/>
     <use xlink:href="#mbf43bfc145" x="119.743471" y="207.517091" style="fill: #1f77b4; stroke: #1f77b4"/>
     <use xlink:href="#mbf43bfc145" x="123.02281" y="185.524364" style="fill: #1f77b4; stroke: #1f77b4"/>
     <use xlink:href="#mbf43bfc145" x="126.302149" y="163.531636" style="fill: #1f77b4; stroke: #1f77b4"/>
     <use xlink:href="#mbf43bfc145" x="129.581488" y="229.509818" style="fill: #1f77b4; stroke: #1f77b4"/>
     <use xlink:href="#mbf43bfc145" x="132.860826" y="163.531636" style="fill: #1f77b4; stroke: #1f77b4"/>
     <use xlink:href="#mbf43bfc145" x="136.140165" y="141.538909" style="fill: #1f77b4; stroke: #1f77b4"/>
     <use xlink:href="#mbf43bfc145" x="139.419504" y="163.531636" style="fill: #1f77b4; stroke: #1f77b4"/>
     <use xlink:href="#mbf43bfc145" x="142.698843" y="207.517091" style="fill: #1f77b4; stroke: #1f77b4"/>
     <use xlink:href="#mbf43bfc145" x="145.978182" y="229.509818" style="fill: #1f77b4; stroke: #1f77b4"/>
     <use xlink:href="#mbf43bfc145" x="149.257521" y="295.488" style="fill: #1f77b4; stroke: #1f77b4"/>
     <use xlink:href="#mbf43bfc145" x="152.53686" y="163.531636" style="fill: #1f77b4; stroke: #1f77b4"/>
     <use xlink:href="#mbf43bfc145" x="155.816198" y="251.502545" style="fill: #1f77b4; stroke: #1f77b4"/>
     <use xlink:href="#mbf43bfc145" x="159.095537" y="273.495273" style="fill: #1f77b4; stroke: #1f77b4"/>
     <use xlink:href="#mbf43bfc145" x="162.374876" y="229.509818" style="fill: #1f77b4; stroke: #1f77b4"/>
     <use xlink:href="#mbf43bfc145" x="165.654215" y="185.524364" style="fill: #1f77b4; stroke: #1f77b4"/>
     <use xlink:href="#mbf43bfc145" x="168.933554" y="185.524364" style="fill: #1f77b4; stroke: #1f77b4"/>
     <use xlink:href="#mbf43bfc145" x="172.212893" y="207.517091" style="fill: #1f77b4; stroke: #1f77b4"/>
     <use xlink:href="#mbf43bfc145" x="175.492231" y="185.524364" style="fill: #1f77b4; stroke: #1f77b4"/>
     <use xlink:href="#mbf43bfc145" x="178.77157" y="163.531636" style="fill: #1f77b4; stroke: #1f77b4"/>
     <use xlink:href="#mbf43bfc145" x="182.050909" y="207.517091" style="fill: #1f77b4; stroke: #1f77b4"/>
     <use xlink:href="#mbf43bfc145" x="185.330248" y="141.538909" style="fill: #1f77b4; stroke: #1f77b4"/>
     <use xlink:href="#mbf43bfc145" x="188.609587" y="163.531636" style="fill: #1f77b4; stroke: #1f77b4"/>
     <use xlink:href="#mbf43bfc145" x="191.888926" y="119.546182" style="fill: #1f77b4; stroke: #1f77b4"/>
     <use xlink:href="#mbf43bfc145" x="195.168264" y="163.531636" style="fill: #1f77b4; stroke: #1f77b4"/>
     <use xlink:href="#mbf43bfc145" x="198.447603" y="97.553455" style="fill: #1f77b4; stroke: #1f77b4"/>
     <use xlink:href="#mbf43bfc145" x="201.726942" y="163.531636" style="fill: #1f77b4; stroke: #1f77b4"/>
     <use xlink:href="#mbf43bfc145" x="205.006281" y="229.509818" style="fill: #1f77b4; stroke: #1f77b4"/>
     <use xlink:href="#mbf43bfc145" x="208.28562" y="229.509818" style="fill: #1f77b4; stroke: #1f77b4"/>
     <use xlink:href="#mbf43bfc145" x="211.564959" y="207.517091" style="fill: #1f77b4; stroke: #1f77b4"/>
     <use xlink:href="#mbf43bfc145" x="214.844298" y="141.538909" style="fill: #1f77b4; stroke: #1f77b4"/>
     <use xlink:href="#mbf43bfc145" x="218.123636" y="185.524364" style="fill: #1f77b4; stroke: #1f77b4"/>
     <use xlink:href="#mbf43bfc145" x="221.402975" y="295.488" style="fill: #1f77b4; stroke: #1f77b4"/>
     <use xlink:href="#mbf43bfc145" x="224.682314" y="163.531636" style="fill: #1f77b4; stroke: #1f77b4"/>
     <use xlink:href="#mbf43bfc145" x="227.961653" y="119.546182" style="fill: #1f77b4; stroke: #1f77b4"/>
     <use xlink:href="#mbf43bfc145" x="231.240992" y="163.531636" style="fill: #1f77b4; stroke: #1f77b4"/>
     <use xlink:href="#mbf43bfc145" x="234.520331" y="141.538909" style="fill: #1f77b4; stroke: #1f77b4"/>
     <use xlink:href="#mbf43bfc145" x="237.799669" y="163.531636" style="fill: #1f77b4; stroke: #1f77b4"/>
     <use xlink:href="#mbf43bfc145" x="241.079008" y="251.502545" style="fill: #1f77b4; stroke: #1f77b4"/>
     <use xlink:href="#mbf43bfc145" x="244.358347" y="163.531636" style="fill: #1f77b4; stroke: #1f77b4"/>
     <use xlink:href="#mbf43bfc145" x="247.637686" y="141.538909" style="fill: #1f77b4; stroke: #1f77b4"/>
     <use xlink:href="#mbf43bfc145" x="250.917025" y="273.495273" style="fill: #1f77b4; stroke: #1f77b4"/>
     <use xlink:href="#mbf43bfc145" x="254.196364" y="207.517091" style="fill: #1f77b4; stroke: #1f77b4"/>
     <use xlink:href="#mbf43bfc145" x="257.475702" y="273.495273" style="fill: #1f77b4; stroke: #1f77b4"/>
     <use xlink:href="#mbf43bfc145" x="260.755041" y="119.546182" style="fill: #1f77b4; stroke: #1f77b4"/>
     <use xlink:href="#mbf43bfc145" x="264.03438" y="75.560727" style="fill: #1f77b4; stroke: #1f77b4"/>
     <use xlink:href="#mbf43bfc145" x="267.313719" y="185.524364" style="fill: #1f77b4; stroke: #1f77b4"/>
     <use xlink:href="#mbf43bfc145" x="270.593058" y="163.531636" style="fill: #1f77b4; stroke: #1f77b4"/>
     <use xlink:href="#mbf43bfc145" x="273.872397" y="141.538909" style="fill: #1f77b4; stroke: #1f77b4"/>
     <use xlink:href="#mbf43bfc145" x="277.151736" y="185.524364" style="fill: #1f77b4; stroke: #1f77b4"/>
     <use xlink:href="#mbf43bfc145" x="280.431074" y="141.538909" style="fill: #1f77b4; stroke: #1f77b4"/>
     <use xlink:href="#mbf43bfc145" x="283.710413" y="251.502545" style="fill: #1f77b4; stroke: #1f77b4"/>
     <use xlink:href="#mbf43bfc145" x="286.989752" y="97.553455" style="fill: #1f77b4; stroke: #1f77b4"/>
     <use xlink:href="#mbf43bfc145" x="290.269091" y="229.509818" style="fill: #1f77b4; stroke: #1f77b4"/>
     <use xlink:href="#mbf43bfc145" x="293.54843" y="119.546182" style="fill: #1f77b4; stroke: #1f77b4"/>
     <use xlink:href="#mbf43bfc145" x="296.827769" y="207.517091" style="fill: #1f77b4; stroke: #1f77b4"/>
     <use xlink:href="#mbf43bfc145" x="300.107107" y="207.517091" style="fill: #1f77b4; stroke: #1f77b4"/>
     <use xlink:href="#mbf43bfc145" x="303.386446" y="163.531636" style="fill: #1f77b4; stroke: #1f77b4"/>
     <use xlink:href="#mbf43bfc145" x="306.665785" y="229.509818" style="fill: #1f77b4; stroke: #1f77b4"/>
     <use xlink:href="#mbf43bfc145" x="309.945124" y="75.560727" style="fill: #1f77b4; stroke: #1f77b4"/>
     <use xlink:href="#mbf43bfc145" x="313.224463" y="229.509818" style="fill: #1f77b4; stroke: #1f77b4"/>
     <use xlink:href="#mbf43bfc145" x="316.503802" y="185.524364" style="fill: #1f77b4; stroke: #1f77b4"/>
     <use xlink:href="#mbf43bfc145" x="319.78314" y="141.538909" style="fill: #1f77b4; stroke: #1f77b4"/>
     <use xlink:href="#mbf43bfc145" x="323.062479" y="207.517091" style="fill: #1f77b4; stroke: #1f77b4"/>
     <use xlink:href="#mbf43bfc145" x="326.341818" y="97.553455" style="fill: #1f77b4; stroke: #1f77b4"/>
     <use xlink:href="#mbf43bfc145" x="329.621157" y="229.509818" style="fill: #1f77b4; stroke: #1f77b4"/>
     <use xlink:href="#mbf43bfc145" x="332.900496" y="119.546182" style="fill: #1f77b4; stroke: #1f77b4"/>
     <use xlink:href="#mbf43bfc145" x="336.179835" y="163.531636" style="fill: #1f77b4; stroke: #1f77b4"/>
     <use xlink:href="#mbf43bfc145" x="339.459174" y="273.495273" style="fill: #1f77b4; stroke: #1f77b4"/>
     <use xlink:href="#mbf43bfc145" x="342.738512" y="185.524364" style="fill: #1f77b4; stroke: #1f77b4"/>
     <use xlink:href="#mbf43bfc145" x="346.017851" y="185.524364" style="fill: #1f77b4; stroke: #1f77b4"/>
     <use xlink:href="#mbf43bfc145" x="349.29719" y="163.531636" style="fill: #1f77b4; stroke: #1f77b4"/>
     <use xlink:href="#mbf43bfc145" x="352.576529" y="229.509818" style="fill: #1f77b4; stroke: #1f77b4"/>
     <use xlink:href="#mbf43bfc145" x="355.855868" y="207.517091" style="fill: #1f77b4; stroke: #1f77b4"/>
     <use xlink:href="#mbf43bfc145" x="359.135207" y="273.495273" style="fill: #1f77b4; stroke: #1f77b4"/>
     <use xlink:href="#mbf43bfc145" x="362.414545" y="163.531636" style="fill: #1f77b4; stroke: #1f77b4"/>
     <use xlink:href="#mbf43bfc145" x="365.693884" y="163.531636" style="fill: #1f77b4; stroke: #1f77b4"/>
     <use xlink:href="#mbf43bfc145" x="368.973223" y="141.538909" style="fill: #1f77b4; stroke: #1f77b4"/>
     <use xlink:href="#mbf43bfc145" x="372.252562" y="207.517091" style="fill: #1f77b4; stroke: #1f77b4"/>
     <use xlink:href="#mbf43bfc145" x="375.531901" y="163.531636" style="fill: #1f77b4; stroke: #1f77b4"/>
     <use xlink:href="#mbf43bfc145" x="378.81124" y="119.546182" style="fill: #1f77b4; stroke: #1f77b4"/>
     <use xlink:href="#mbf43bfc145" x="382.090579" y="141.538909" style="fill: #1f77b4; stroke: #1f77b4"/>
     <use xlink:href="#mbf43bfc145" x="385.369917" y="163.531636" style="fill: #1f77b4; stroke: #1f77b4"/>
     <use xlink:href="#mbf43bfc145" x="388.649256" y="185.524364" style="fill: #1f77b4; stroke: #1f77b4"/>
     <use xlink:href="#mbf43bfc145" x="391.928595" y="119.546182" style="fill: #1f77b4; stroke: #1f77b4"/>
     <use xlink:href="#mbf43bfc145" x="395.207934" y="53.568" style="fill: #1f77b4; stroke: #1f77b4"/>
     <use xlink:href="#mbf43bfc145" x="398.487273" y="163.531636" style="fill: #1f77b4; stroke: #1f77b4"/>
    </g>
   </g>
   <g id="patch_3">
    <path d="M 57.6 307.584 
L 57.6 41.472 
" style="fill: none; stroke: #000000; stroke-width: 0.8; stroke-linejoin: miter; stroke-linecap: square"/>
   </g>
   <g id="patch_4">
    <path d="M 414.72 307.584 
L 414.72 41.472 
" style="fill: none; stroke: #000000; stroke-width: 0.8; stroke-linejoin: miter; stroke-linecap: square"/>
   </g>
   <g id="patch_5">
    <path d="M 57.6 307.584 
L 414.72 307.584 
" style="fill: none; stroke: #000000; stroke-width: 0.8; stroke-linejoin: miter; stroke-linecap: square"/>
   </g>
   <g id="patch_6">
    <path d="M 57.6 41.472 
L 414.72 41.472 
" style="fill: none; stroke: #000000; stroke-width: 0.8; stroke-linejoin: miter; stroke-linecap: square"/>
   </g>
   <g id="text_15">
    <!-- SBA Algorithm (NIA) -->
    <g transform="translate(175.887187 35.472)scale(0.12 -0.12)">
     <defs>
      <path id="DejaVuSans-53" d="M 3425 4513 
L 3425 3897 
Q 3066 4069 2747 4153 
Q 2428 4238 2131 4238 
Q 1616 4238 1336 4038 
Q 1056 3838 1056 3469 
Q 1056 3159 1242 3001 
Q 1428 2844 1947 2747 
L 2328 2669 
Q 3034 2534 3370 2195 
Q 3706 1856 3706 1288 
Q 3706 609 3251 259 
Q 2797 -91 1919 -91 
Q 1588 -91 1214 -16 
Q 841 59 441 206 
L 441 856 
Q 825 641 1194 531 
Q 1563 422 1919 422 
Q 2459 422 2753 634 
Q 3047 847 3047 1241 
Q 3047 1584 2836 1778 
Q 2625 1972 2144 2069 
L 1759 2144 
Q 1053 2284 737 2584 
Q 422 2884 422 3419 
Q 422 4038 858 4394 
Q 1294 4750 2059 4750 
Q 2388 4750 2728 4690 
Q 3069 4631 3425 4513 
z
" transform="scale(0.015625)"/>
      <path id="DejaVuSans-42" d="M 1259 2228 
L 1259 519 
L 2272 519 
Q 2781 519 3026 730 
Q 3272 941 3272 1375 
Q 3272 1813 3026 2020 
Q 2781 2228 2272 2228 
L 1259 2228 
z
M 1259 4147 
L 1259 2741 
L 2194 2741 
Q 2656 2741 2882 2914 
Q 3109 3088 3109 3444 
Q 3109 3797 2882 3972 
Q 2656 4147 2194 4147 
L 1259 4147 
z
M 628 4666 
L 2241 4666 
Q 2963 4666 3353 4366 
Q 3744 4066 3744 3513 
Q 3744 3084 3544 2831 
Q 3344 2578 2956 2516 
Q 3422 2416 3680 2098 
Q 3938 1781 3938 1306 
Q 3938 681 3513 340 
Q 3088 0 2303 0 
L 628 0 
L 628 4666 
z
" transform="scale(0.015625)"/>
      <path id="DejaVuSans-20" transform="scale(0.015625)"/>
      <path id="DejaVuSans-6c" d="M 603 4863 
L 1178 4863 
L 1178 0 
L 603 0 
L 603 4863 
z
" transform="scale(0.015625)"/>
      <path id="DejaVuSans-67" d="M 2906 1791 
Q 2906 2416 2648 2759 
Q 2391 3103 1925 3103 
Q 1463 3103 1205 2759 
Q 947 2416 947 1791 
Q 947 1169 1205 825 
Q 1463 481 1925 481 
Q 2391 481 2648 825 
Q 2906 1169 2906 1791 
z
M 3481 434 
Q 3481 -459 3084 -895 
Q 2688 -1331 1869 -1331 
Q 1566 -1331 1297 -1286 
Q 1028 -1241 775 -1147 
L 775 -588 
Q 1028 -725 1275 -790 
Q 1522 -856 1778 -856 
Q 2344 -856 2625 -561 
Q 2906 -266 2906 331 
L 2906 616 
Q 2728 306 2450 153 
Q 2172 0 1784 0 
Q 1141 0 747 490 
Q 353 981 353 1791 
Q 353 2603 747 3093 
Q 1141 3584 1784 3584 
Q 2172 3584 2450 3431 
Q 2728 3278 2906 2969 
L 2906 3500 
L 3481 3500 
L 3481 434 
z
" transform="scale(0.015625)"/>
      <path id="DejaVuSans-68" d="M 3513 2113 
L 3513 0 
L 2938 0 
L 2938 2094 
Q 2938 2591 2744 2837 
Q 2550 3084 2163 3084 
Q 1697 3084 1428 2787 
Q 1159 2491 1159 1978 
L 1159 0 
L 581 0 
L 581 4863 
L 1159 4863 
L 1159 2956 
Q 1366 3272 1645 3428 
Q 1925 3584 2291 3584 
Q 2894 3584 3203 3211 
Q 3513 2838 3513 2113 
z
" transform="scale(0.015625)"/>
      <path id="DejaVuSans-6d" d="M 3328 2828 
Q 3544 3216 3844 3400 
Q 4144 3584 4550 3584 
Q 5097 3584 5394 3201 
Q 5691 2819 5691 2113 
L 5691 0 
L 5113 0 
L 5113 2094 
Q 5113 2597 4934 2840 
Q 4756 3084 4391 3084 
Q 3944 3084 3684 2787 
Q 3425 2491 3425 1978 
L 3425 0 
L 2847 0 
L 2847 2094 
Q 2847 2600 2669 2842 
Q 2491 3084 2119 3084 
Q 1678 3084 1418 2786 
Q 1159 2488 1159 1978 
L 1159 0 
L 581 0 
L 581 3500 
L 1159 3500 
L 1159 2956 
Q 1356 3278 1631 3431 
Q 1906 3584 2284 3584 
Q 2666 3584 2933 3390 
Q 3200 3197 3328 2828 
z
" transform="scale(0.015625)"/>
      <path id="DejaVuSans-28" d="M 1984 4856 
Q 1566 4138 1362 3434 
Q 1159 2731 1159 2009 
Q 1159 1288 1364 580 
Q 1569 -128 1984 -844 
L 1484 -844 
Q 1016 -109 783 600 
Q 550 1309 550 2009 
Q 550 2706 781 3412 
Q 1013 4119 1484 4856 
L 1984 4856 
z
" transform="scale(0.015625)"/>
      <path id="DejaVuSans-4e" d="M 628 4666 
L 1478 4666 
L 3547 763 
L 3547 4666 
L 4159 4666 
L 4159 0 
L 3309 0 
L 1241 3903 
L 1241 0 
L 628 0 
L 628 4666 
z
" transform="scale(0.015625)"/>
      <path id="DejaVuSans-29" d="M 513 4856 
L 1013 4856 
Q 1481 4119 1714 3412 
Q 1947 2706 1947 2009 
Q 1947 1309 1714 600 
Q 1481 -109 1013 -844 
L 513 -844 
Q 928 -128 1133 580 
Q 1338 1288 1338 2009 
Q 1338 2731 1133 3434 
Q 928 4138 513 4856 
z
" transform="scale(0.015625)"/>
     </defs>
     <use xlink:href="#DejaVuSans-53"/>
     <use xlink:href="#DejaVuSans-42" x="63.476562"/>
     <use xlink:href="#DejaVuSans-41" x="132.080078"/>
     <use xlink:href="#DejaVuSans-20" x="200.488281"/>
     <use xlink:href="#DejaVuSans-41" x="232.275391"/>
     <use xlink:href="#DejaVuSans-6c" x="300.683594"/>
     <use xlink:href="#DejaVuSans-67" x="328.466797"/>
     <use xlink:href="#DejaVuSans-6f" x="391.943359"/>
     <use xlink:href="#DejaVuSans-72" x="453.125"/>
     <use xlink:href="#DejaVuSans-69" x="494.238281"/>
     <use xlink:href="#DejaVuSans-74" x="522.021484"/>
     <use xlink:href="#DejaVuSans-68" x="561.230469"/>
     <use xlink:href="#DejaVuSans-6d" x="624.609375"/>
     <use xlink:href="#DejaVuSans-20" x="722.021484"/>
     <use xlink:href="#DejaVuSans-28" x="753.808594"/>
     <use xlink:href="#DejaVuSans-4e" x="792.822266"/>
     <use xlink:href="#DejaVuSans-49" x="867.626953"/>
     <use xlink:href="#DejaVuSans-41" x="897.119141"/>
     <use xlink:href="#DejaVuSans-29" x="965.527344"/>
    </g>
   </g>
  </g>
 </g>
 <defs>
  <clipPath id="p87c32f747b">
   <rect x="57.6" y="41.472" width="357.12" height="266.112"/>
  </clipPath>
 </defs>
</svg>
